<svg xmlns="http://www.w3.org/2000/svg" xmlns:xlink="http://www.w3.org/1999/xlink" width="467" height="449" viewBox="0 0 467 449">
  <defs>
    <filter id="Path_29782" x="0" y="0" width="467" height="449" filterUnits="userSpaceOnUse">
      <feOffset input="SourceAlpha"/>
      <feGaussianBlur stdDeviation="12" result="blur"/>
      <feFlood flood-color="#656565" flood-opacity="0.161"/>
      <feComposite operator="in" in2="blur"/>
      <feComposite in="SourceGraphic"/>
    </filter>
  </defs>
  <g id="Group_162609" data-name="Group 162609" transform="translate(-813 -5251)">
    <g transform="matrix(1, 0, 0, 1, 813, 5251)" filter="url(#Path_29782)">
      <path id="Path_29782-2" data-name="Path 29782" d="M12,0H383a12,12,0,0,1,12,12V365a12,12,0,0,1-12,12H12A12,12,0,0,1,0,365V12A12,12,0,0,1,12,0Z" transform="translate(36 36)" fill="#fdfdfd"/>
    </g>
    <path id="Path_29786" data-name="Path 29786" d="M6,0H184V54H0V6A6,6,0,0,1,6,0Z" transform="translate(863 5361)" fill="#d82b1b"/>
    <path id="Path_29783" data-name="Path 29783" d="M0,0H177a6,6,0,0,1,6,6V54H0Z" transform="translate(1047 5361)" fill="#d82b1b"/>
    <path id="Path_29787" data-name="Path 29787" d="M0,0H182V54H0Z" transform="translate(1048 5419)" fill="#f7f7f7"/>
    <path id="Path_29788" data-name="Path 29788" d="M0,0H182V54H0Z" transform="translate(1048 5535)" fill="#f7f7f7"/>
    <path id="Path_29789" data-name="Path 29789" d="M0,0H182V54H0Z" transform="translate(1048 5477)" fill="#fff2f0"/>
    <path id="Path_29796" data-name="Path 29796" d="M0,0H182V48a6,6,0,0,1-6,6H0Z" transform="translate(1048 5593)" fill="#fff2f0"/>
    <path id="Path_29790" data-name="Path 29790" d="M0,0H182V54H0Z" transform="translate(863 5419)" fill="#f7f7f7"/>
    <path id="Path_29791" data-name="Path 29791" d="M0,0H182V54H0Z" transform="translate(863 5535)" fill="#f7f7f7"/>
    <path id="Path_29792" data-name="Path 29792" d="M0,0H182V54H0Z" transform="translate(863 5477)" fill="#fff2f0"/>
    <path id="Path_29797" data-name="Path 29797" d="M0,0H182V54H6a6,6,0,0,1-6-6Z" transform="translate(863 5593)" fill="#fff2f0"/>
    <path id="Path_29784" data-name="Path 29784" d="M7.09-2.3a3.406,3.406,0,0,0,1.185-.175A1.991,1.991,0,0,0,9.02-2.94a1.591,1.591,0,0,0,.39-.665,2.739,2.739,0,0,0,.11-.775,2.257,2.257,0,0,0-.13-.79,1.41,1.41,0,0,0-.42-.595,1.98,1.98,0,0,0-.755-.375A4.315,4.315,0,0,0,7.07-6.27H4.52V-2.3ZM4.52-12.23v3.92H6.49a5.377,5.377,0,0,0,1.12-.105,2.241,2.241,0,0,0,.82-.335,1.492,1.492,0,0,0,.5-.605,2.128,2.128,0,0,0,.175-.9,2.587,2.587,0,0,0-.145-.92,1.361,1.361,0,0,0-.445-.61,1.944,1.944,0,0,0-.76-.335,4.952,4.952,0,0,0-1.09-.105Zm2.15-2.28a9.828,9.828,0,0,1,2.495.275,4.732,4.732,0,0,1,1.69.78,2.978,2.978,0,0,1,.955,1.225,4.149,4.149,0,0,1,.3,1.61,3.174,3.174,0,0,1-.145.96,2.861,2.861,0,0,1-.45.865,3.334,3.334,0,0,1-.785.735,4.78,4.78,0,0,1-1.14.56,4.143,4.143,0,0,1,2.19,1.14,2.95,2.95,0,0,1,.71,2.05,4.123,4.123,0,0,1-.355,1.71A3.868,3.868,0,0,1,11.1-1.23a4.884,4.884,0,0,1-1.675.905A7.356,7.356,0,0,1,7.14,0H1.52V-14.51Zm24.12,0V0H28.14V-8.91q0-.28.015-.6t.055-.65L24.06-2.29a1.113,1.113,0,0,1-1.05.65h-.42a1.165,1.165,0,0,1-.62-.165,1.157,1.157,0,0,1-.43-.485l-4.17-7.9q.03.35.05.675t.02.605V0H14.79V-14.51h2.28q.19,0,.34.01a.888.888,0,0,1,.265.055.611.611,0,0,1,.21.14,1.107,1.107,0,0,1,.185.265L22.13-6.3q.19.35.355.72t.315.76q.15-.4.315-.78t.355-.73l4.03-7.71a1.025,1.025,0,0,1,.19-.265.663.663,0,0,1,.215-.14.877.877,0,0,1,.26-.055q.145-.01.345-.01ZM36.84,0H33.82V-14.51h3.02ZM49.17-7.64a3.833,3.833,0,0,0,1.26-.185,2.367,2.367,0,0,0,.87-.51,1.982,1.982,0,0,0,.5-.765,2.789,2.789,0,0,0,.16-.96,1.966,1.966,0,0,0-.685-1.6,3.21,3.21,0,0,0-2.085-.57H47.63v4.59ZM56.2,0H53.49a1.178,1.178,0,0,1-1.1-.58L49.63-5.03a1.166,1.166,0,0,0-.375-.38,1.22,1.22,0,0,0-.6-.12H47.63V0h-3V-14.51h4.56a9.372,9.372,0,0,1,2.6.315,5,5,0,0,1,1.77.875,3.351,3.351,0,0,1,1.01,1.335,4.425,4.425,0,0,1,.32,1.705,4.48,4.48,0,0,1-.2,1.365,4.024,4.024,0,0,1-.6,1.175,4.289,4.289,0,0,1-.96.94,4.965,4.965,0,0,1-1.3.66,2.9,2.9,0,0,1,.54.385,2.638,2.638,0,0,1,.45.535Zm9.08-5.51L63.71-9.95q-.14-.35-.295-.82t-.3-1.02q-.14.56-.3,1.035t-.295.825L60.97-5.51ZM70.32,0H67.99a1.026,1.026,0,0,1-.635-.185A1.121,1.121,0,0,1,66.99-.66l-.98-2.77H60.23L59.25-.66a1.142,1.142,0,0,1-.35.455A.961.961,0,0,1,58.27,0H55.92l5.67-14.51h3.07ZM84.09-14.51V0H82.54a1.359,1.359,0,0,1-.59-.115,1.427,1.427,0,0,1-.47-.395l-7.23-9.2q.03.35.045.69t.015.63V0H71.66V-14.51h1.58a3,3,0,0,1,.325.015.721.721,0,0,1,.245.07.948.948,0,0,1,.21.145,2.04,2.04,0,0,1,.22.24L81.52-4.8q-.04-.38-.06-.735t-.02-.675v-8.3Zm10.1,7.12h4.98V-1.4A7.764,7.764,0,0,1,96.805-.215,9.226,9.226,0,0,1,94.15.16,9,9,0,0,1,90.91-.4,7.29,7.29,0,0,1,88.43-1.94a6.821,6.821,0,0,1-1.59-2.35,7.726,7.726,0,0,1-.56-2.97,8.1,8.1,0,0,1,.535-2.99,6.7,6.7,0,0,1,1.525-2.34,6.964,6.964,0,0,1,2.395-1.53,8.565,8.565,0,0,1,3.145-.55,9.2,9.2,0,0,1,1.68.145,8.1,8.1,0,0,1,1.44.4,6.834,6.834,0,0,1,1.21.6,6.851,6.851,0,0,1,1,.77l-.87,1.34a.809.809,0,0,1-.52.39.952.952,0,0,1-.7-.16q-.36-.22-.705-.4a5.39,5.39,0,0,0-.735-.3,5.126,5.126,0,0,0-.85-.2,7.117,7.117,0,0,0-1.06-.07,4.617,4.617,0,0,0-1.83.35,3.915,3.915,0,0,0-1.4.99,4.432,4.432,0,0,0-.885,1.54,6.144,6.144,0,0,0-.31,2.01,6.311,6.311,0,0,0,.34,2.145,4.465,4.465,0,0,0,.96,1.595,4.093,4.093,0,0,0,1.485.99,5.222,5.222,0,0,0,1.925.34,5.184,5.184,0,0,0,1.285-.145,6.43,6.43,0,0,0,1.1-.395V-5.17H94.81a.638.638,0,0,1-.455-.155.518.518,0,0,1-.165-.395Zm10.45-4.77v3.73h4.84v2.27h-4.84v3.81h6.22V0h-9.24V-14.51h9.24v2.35Zm20.19,6.65-1.57-4.44q-.14-.35-.295-.82t-.3-1.02q-.14.56-.295,1.035t-.295.825l-1.56,4.42ZM129.87,0h-2.33a1.026,1.026,0,0,1-.635-.185,1.121,1.121,0,0,1-.365-.475l-.98-2.77h-5.78L118.8-.66a1.142,1.142,0,0,1-.35.455.961.961,0,0,1-.63.205h-2.35l5.67-14.51h3.07Zm13.77-14.51V0h-1.55a1.359,1.359,0,0,1-.59-.115,1.428,1.428,0,0,1-.47-.395l-7.23-9.2q.03.35.045.69t.015.63V0h-2.65V-14.51h1.58a3,3,0,0,1,.325.015.721.721,0,0,1,.245.07.948.948,0,0,1,.21.145,2.042,2.042,0,0,1,.22.24l7.28,9.24q-.04-.38-.06-.735t-.02-.675v-8.3Zm16.05,7.25a7.793,7.793,0,0,1-.535,2.925,6.648,6.648,0,0,1-1.51,2.3A6.906,6.906,0,0,1,155.3-.54a8.224,8.224,0,0,1-3.04.54h-5.58V-14.51h5.58a8.224,8.224,0,0,1,3.04.54,6.868,6.868,0,0,1,2.345,1.5,6.712,6.712,0,0,1,1.51,2.3A7.727,7.727,0,0,1,159.69-7.26Zm-3.08,0a6.53,6.53,0,0,0-.3-2.05,4.32,4.32,0,0,0-.86-1.54,3.753,3.753,0,0,0-1.365-.97,4.651,4.651,0,0,0-1.825-.34H149.7v9.81h2.56a4.712,4.712,0,0,0,1.825-.335,3.676,3.676,0,0,0,1.365-.97,4.372,4.372,0,0,0,.86-1.545A6.565,6.565,0,0,0,156.61-7.26Zm19.92,3.69a.555.555,0,0,1,.42.18l1.19,1.27a5.662,5.662,0,0,1-2.185,1.7,7.6,7.6,0,0,1-3.1.58A7.4,7.4,0,0,1,169.92-.4a6.34,6.34,0,0,1-2.21-1.545,6.866,6.866,0,0,1-1.4-2.35,8.7,8.7,0,0,1-.49-2.97,8.744,8.744,0,0,1,.235-2.055,7.235,7.235,0,0,1,.685-1.795,6.937,6.937,0,0,1,1.085-1.48,6.544,6.544,0,0,1,1.435-1.125,6.9,6.9,0,0,1,1.745-.71,8,8,0,0,1,2.015-.245,7.875,7.875,0,0,1,1.515.14,7.328,7.328,0,0,1,1.335.39,6.127,6.127,0,0,1,1.145.605,6.4,6.4,0,0,1,.945.775l-1.01,1.38a.942.942,0,0,1-.23.23.642.642,0,0,1-.38.1.849.849,0,0,1-.485-.17q-.245-.17-.6-.38a4.344,4.344,0,0,0-.89-.38,4.551,4.551,0,0,0-1.355-.17,4.148,4.148,0,0,0-1.67.33,3.628,3.628,0,0,0-1.305.955,4.4,4.4,0,0,0-.845,1.535,6.6,6.6,0,0,0-.3,2.07,6.209,6.209,0,0,0,.325,2.085,4.577,4.577,0,0,0,.89,1.545,3.747,3.747,0,0,0,1.32.955,4.041,4.041,0,0,0,1.615.325,7.781,7.781,0,0,0,.925-.05,3.832,3.832,0,0,0,.77-.17,3.4,3.4,0,0,0,.67-.31,4.13,4.13,0,0,0,.635-.48,1.236,1.236,0,0,1,.23-.15A.573.573,0,0,1,176.53-3.57Zm10.96-1.94-1.57-4.44q-.14-.35-.295-.82t-.295-1.02q-.14.56-.295,1.035t-.3.825l-1.56,4.42ZM192.53,0H190.2a1.026,1.026,0,0,1-.635-.185A1.12,1.12,0,0,1,189.2-.66l-.98-2.77h-5.78l-.98,2.77a1.142,1.142,0,0,1-.35.455.961.961,0,0,1-.63.205h-2.35l5.67-14.51h3.07Zm10.19-12.09h-4.24V0h-3.01V-12.09h-4.24v-2.42h11.49Zm4.83-.07v3.73h4.84v2.27h-4.84v3.81h6.22V0h-9.24V-14.51h9.24v2.35Zm15.22,4.77h4.98V-1.4a7.764,7.764,0,0,1-2.365,1.185A9.226,9.226,0,0,1,222.73.16,9,9,0,0,1,219.49-.4a7.29,7.29,0,0,1-2.48-1.545,6.821,6.821,0,0,1-1.59-2.35,7.726,7.726,0,0,1-.56-2.97,8.1,8.1,0,0,1,.535-2.99,6.7,6.7,0,0,1,1.525-2.34,6.964,6.964,0,0,1,2.4-1.53,8.565,8.565,0,0,1,3.145-.55,9.2,9.2,0,0,1,1.68.145,8.1,8.1,0,0,1,1.44.4,6.834,6.834,0,0,1,1.21.6,6.852,6.852,0,0,1,1,.77l-.87,1.34a.809.809,0,0,1-.52.39.952.952,0,0,1-.7-.16q-.36-.22-.705-.4a5.39,5.39,0,0,0-.735-.3,5.127,5.127,0,0,0-.85-.2,7.117,7.117,0,0,0-1.06-.07,4.617,4.617,0,0,0-1.83.35,3.914,3.914,0,0,0-1.4.99,4.432,4.432,0,0,0-.885,1.54,6.145,6.145,0,0,0-.31,2.01,6.311,6.311,0,0,0,.34,2.145,4.466,4.466,0,0,0,.96,1.595,4.093,4.093,0,0,0,1.485.99,5.222,5.222,0,0,0,1.925.34,5.184,5.184,0,0,0,1.285-.145,6.431,6.431,0,0,0,1.1-.395V-5.17h-1.64a.638.638,0,0,1-.455-.155.518.518,0,0,1-.165-.395Zm21.45.13a7.988,7.988,0,0,1-.535,2.95,6.912,6.912,0,0,1-1.51,2.35A6.984,6.984,0,0,1,239.83-.405a7.9,7.9,0,0,1-3.04.565,7.9,7.9,0,0,1-3.04-.565A7.039,7.039,0,0,1,231.4-1.96a6.875,6.875,0,0,1-1.515-2.35,7.987,7.987,0,0,1-.535-2.95,7.948,7.948,0,0,1,.535-2.945A6.886,6.886,0,0,1,231.4-12.55a7.039,7.039,0,0,1,2.35-1.555,7.9,7.9,0,0,1,3.04-.565,7.9,7.9,0,0,1,3.04.565,6.947,6.947,0,0,1,2.345,1.56,6.977,6.977,0,0,1,1.51,2.35A7.921,7.921,0,0,1,244.22-7.26Zm-3.07,0a6.483,6.483,0,0,0-.3-2.045,4.336,4.336,0,0,0-.865-1.54,3.721,3.721,0,0,0-1.37-.97,4.712,4.712,0,0,0-1.825-.335,4.75,4.75,0,0,0-1.83.335,3.712,3.712,0,0,0-1.375.97,4.336,4.336,0,0,0-.865,1.54,6.483,6.483,0,0,0-.3,2.045,6.518,6.518,0,0,0,.3,2.055,4.284,4.284,0,0,0,.865,1.535,3.739,3.739,0,0,0,1.375.965,4.75,4.75,0,0,0,1.83.335,4.712,4.712,0,0,0,1.825-.335,3.748,3.748,0,0,0,1.37-.965A4.284,4.284,0,0,0,240.85-5.2,6.518,6.518,0,0,0,241.15-7.26Zm9.81-.38a3.833,3.833,0,0,0,1.26-.185,2.367,2.367,0,0,0,.87-.51,1.982,1.982,0,0,0,.5-.765,2.789,2.789,0,0,0,.16-.96,1.966,1.966,0,0,0-.685-1.6,3.21,3.21,0,0,0-2.085-.57h-1.56v4.59ZM257.99,0h-2.71a1.178,1.178,0,0,1-1.1-.58l-2.76-4.45a1.166,1.166,0,0,0-.375-.38,1.22,1.22,0,0,0-.605-.12h-1.02V0h-3V-14.51h4.56a9.372,9.372,0,0,1,2.6.315,5,5,0,0,1,1.77.875,3.351,3.351,0,0,1,1.01,1.335,4.425,4.425,0,0,1,.32,1.705,4.48,4.48,0,0,1-.2,1.365,4.025,4.025,0,0,1-.6,1.175,4.289,4.289,0,0,1-.96.94,4.965,4.965,0,0,1-1.3.66,2.9,2.9,0,0,1,.54.385,2.639,2.639,0,0,1,.45.535Zm7.26-5.58V0h-3V-5.58l-5.27-8.93h2.64a.982.982,0,0,1,.625.185,1.329,1.329,0,0,1,.375.475L263-9.28q.24.46.435.86t.345.8q.14-.4.325-.8t.415-.855l2.36-4.57a1.488,1.488,0,0,1,.36-.45.907.907,0,0,1,.62-.21h2.66Zm20.4,2.01a.555.555,0,0,1,.42.18l1.19,1.27a5.663,5.663,0,0,1-2.185,1.7,7.6,7.6,0,0,1-3.105.58A7.4,7.4,0,0,1,279.04-.4a6.34,6.34,0,0,1-2.21-1.545,6.867,6.867,0,0,1-1.4-2.35,8.7,8.7,0,0,1-.49-2.97,8.745,8.745,0,0,1,.235-2.055,7.236,7.236,0,0,1,.685-1.795,6.937,6.937,0,0,1,1.085-1.48,6.543,6.543,0,0,1,1.435-1.125,6.9,6.9,0,0,1,1.745-.71,8,8,0,0,1,2.015-.245,7.875,7.875,0,0,1,1.515.14,7.328,7.328,0,0,1,1.335.39,6.127,6.127,0,0,1,1.145.605,6.4,6.4,0,0,1,.945.775l-1.01,1.38a.941.941,0,0,1-.23.23.642.642,0,0,1-.38.1.849.849,0,0,1-.485-.17q-.245-.17-.6-.38a4.345,4.345,0,0,0-.89-.38,4.551,4.551,0,0,0-1.355-.17,4.148,4.148,0,0,0-1.67.33,3.628,3.628,0,0,0-1.3.955,4.4,4.4,0,0,0-.845,1.535,6.6,6.6,0,0,0-.3,2.07,6.209,6.209,0,0,0,.325,2.085,4.577,4.577,0,0,0,.89,1.545,3.747,3.747,0,0,0,1.32.955,4.041,4.041,0,0,0,1.615.325,7.781,7.781,0,0,0,.925-.05,3.832,3.832,0,0,0,.77-.17,3.4,3.4,0,0,0,.67-.31,4.132,4.132,0,0,0,.635-.48,1.235,1.235,0,0,1,.23-.15A.573.573,0,0,1,285.65-3.57Zm15.73-10.94V0h-3.02V-6.25h-6.39V0h-3.02V-14.51h3.02v6.16h6.39v-6.16Zm10.7,9-1.57-4.44q-.14-.35-.295-.82t-.3-1.02q-.14.56-.295,1.035t-.3.825l-1.56,4.42ZM317.12,0h-2.33a1.026,1.026,0,0,1-.635-.185,1.121,1.121,0,0,1-.365-.475l-.98-2.77h-5.78l-.98,2.77a1.142,1.142,0,0,1-.35.455.961.961,0,0,1-.63.205h-2.35l5.67-14.51h3.07ZM323-7.64a3.833,3.833,0,0,0,1.26-.185,2.367,2.367,0,0,0,.87-.51,1.982,1.982,0,0,0,.5-.765,2.79,2.79,0,0,0,.16-.96,1.966,1.966,0,0,0-.685-1.6,3.21,3.21,0,0,0-2.085-.57h-1.56v4.59ZM330.03,0h-2.71a1.178,1.178,0,0,1-1.1-.58l-2.76-4.45a1.166,1.166,0,0,0-.375-.38,1.22,1.22,0,0,0-.6-.12h-1.02V0h-3V-14.51h4.56a9.372,9.372,0,0,1,2.6.315,5,5,0,0,1,1.77.875,3.351,3.351,0,0,1,1.01,1.335,4.425,4.425,0,0,1,.32,1.705,4.48,4.48,0,0,1-.2,1.365,4.025,4.025,0,0,1-.6,1.175,4.29,4.29,0,0,1-.96.94,4.965,4.965,0,0,1-1.3.66,2.9,2.9,0,0,1,.54.385,2.639,2.639,0,0,1,.45.535Zm11.35-12.09h-4.24V0h-3.01V-12.09h-4.24v-2.42h11.49Z" transform="translate(876 5337)" fill="#333"/>
    <path id="Path_29798" data-name="Path 29798" d="M10.26-3.069a.454.454,0,0,1,.342.153l.954,1.035a5.24,5.24,0,0,1-1.949,1.5A6.715,6.715,0,0,1,6.831.144a6.561,6.561,0,0,1-2.605-.5A5.743,5.743,0,0,1,2.25-1.728,6.028,6.028,0,0,1,.994-3.834,7.905,7.905,0,0,1,.558-6.507a7.2,7.2,0,0,1,.486-2.686,6.156,6.156,0,0,1,1.368-2.1,6.192,6.192,0,0,1,2.11-1.373,7.256,7.256,0,0,1,2.714-.49,6.407,6.407,0,0,1,2.533.464,5.921,5.921,0,0,1,1.859,1.228l-.81,1.125a.735.735,0,0,1-.185.189.523.523,0,0,1-.31.081.708.708,0,0,1-.423-.162,5.237,5.237,0,0,0-.549-.351,4.475,4.475,0,0,0-.841-.351A4.33,4.33,0,0,0,7.218-11.1a4.358,4.358,0,0,0-1.687.319,3.751,3.751,0,0,0-1.323.914A4.2,4.2,0,0,0,3.343-8.42a5.548,5.548,0,0,0-.31,1.913,5.7,5.7,0,0,0,.31,1.953,4.294,4.294,0,0,0,.842,1.44,3.593,3.593,0,0,0,1.251.9,3.867,3.867,0,0,0,1.548.31,6.743,6.743,0,0,0,.9-.054,3.8,3.8,0,0,0,.738-.171,3.276,3.276,0,0,0,.639-.3,3.992,3.992,0,0,0,.6-.455.853.853,0,0,1,.189-.13A.476.476,0,0,1,10.26-3.069ZM24.822,0H22.95a.818.818,0,0,1-.518-.157.9.9,0,0,1-.292-.392L21.168-3.2H15.777L14.805-.549a.852.852,0,0,1-.283.378A.8.8,0,0,1,14,0H12.123l5.112-13.014H19.71ZM16.4-4.914h4.149L18.963-9.243q-.108-.288-.238-.679t-.257-.851q-.126.459-.247.855t-.239.693Zm17.613-8.1v1.989H30.1V0H27.675V-11.025H23.742v-1.989Zm9.747,0v1.926H37.989v3.609h4.545v1.863H37.989v3.681h5.769V0H35.55V-13.014ZM51.831-1.782a6.057,6.057,0,0,0,1.426-.148,6.009,6.009,0,0,0,1.157-.41V-4.707H52.785a.509.509,0,0,1-.369-.131.427.427,0,0,1-.135-.319V-6.525H56.61V-1.26a7.15,7.15,0,0,1-1.031.625A6.581,6.581,0,0,1,54.437-.2a8.755,8.755,0,0,1-1.3.256,12.23,12.23,0,0,1-1.494.086,6.787,6.787,0,0,1-2.619-.5,6.222,6.222,0,0,1-2.07-1.377A6.27,6.27,0,0,1,45.59-3.834,7.121,7.121,0,0,1,45.1-6.507,7.351,7.351,0,0,1,45.576-9.2,6.072,6.072,0,0,1,46.931-11.3a6.047,6.047,0,0,1,2.128-1.368,7.7,7.7,0,0,1,2.808-.486,7.321,7.321,0,0,1,2.758.472A6.362,6.362,0,0,1,56.6-11.457l-.7,1.1a.624.624,0,0,1-.549.333.817.817,0,0,1-.441-.144q-.288-.171-.59-.342a3.988,3.988,0,0,0-.666-.3,5.429,5.429,0,0,0-.819-.207,6.03,6.03,0,0,0-1.049-.081,4.492,4.492,0,0,0-1.741.324,3.684,3.684,0,0,0-1.328.927A4.178,4.178,0,0,0,47.871-8.4a5.678,5.678,0,0,0-.3,1.89,5.907,5.907,0,0,0,.315,2,4.2,4.2,0,0,0,.882,1.481,3.8,3.8,0,0,0,1.35.922A4.484,4.484,0,0,0,51.831-1.782ZM71.352-6.507a7.213,7.213,0,0,1-.477,2.651,6.279,6.279,0,0,1-1.341,2.11A6.072,6.072,0,0,1,67.455-.356a7.013,7.013,0,0,1-2.691.5,7.047,7.047,0,0,1-2.7-.5A6.11,6.11,0,0,1,59.98-1.746a6.244,6.244,0,0,1-1.345-2.11,7.213,7.213,0,0,1-.477-2.651,7.213,7.213,0,0,1,.477-2.651,6.244,6.244,0,0,1,1.345-2.11,6.11,6.11,0,0,1,2.088-1.391,7.047,7.047,0,0,1,2.7-.5,6.958,6.958,0,0,1,2.691.5,6.159,6.159,0,0,1,2.079,1.391,6.23,6.23,0,0,1,1.341,2.106A7.213,7.213,0,0,1,71.352-6.507Zm-2.484,0a6.06,6.06,0,0,0-.283-1.922,4.065,4.065,0,0,0-.814-1.444,3.507,3.507,0,0,0-1.292-.909,4.444,4.444,0,0,0-1.715-.315,4.477,4.477,0,0,0-1.719.315,3.54,3.54,0,0,0-1.3.909,4.081,4.081,0,0,0-.823,1.444,5.973,5.973,0,0,0-.288,1.922,5.973,5.973,0,0,0,.288,1.921,4.034,4.034,0,0,0,.823,1.44,3.565,3.565,0,0,0,1.3.9,4.477,4.477,0,0,0,1.719.315,4.444,4.444,0,0,0,1.715-.315,3.531,3.531,0,0,0,1.292-.9,4.018,4.018,0,0,0,.814-1.44A6.06,6.06,0,0,0,68.868-6.507Zm6.894,1.422V0H73.341V-13.014H77.31a8.29,8.29,0,0,1,2.282.274,4.347,4.347,0,0,1,1.557.769,2.971,2.971,0,0,1,.891,1.184,3.946,3.946,0,0,1,.284,1.517,3.93,3.93,0,0,1-.193,1.242,3.6,3.6,0,0,1-.558,1.062,3.761,3.761,0,0,1-.9.837,4.718,4.718,0,0,1-1.22.576,2.4,2.4,0,0,1,.792.747L83.5,0H81.324a1.063,1.063,0,0,1-.535-.126,1.1,1.1,0,0,1-.373-.36L77.679-4.653a.96.96,0,0,0-.338-.333,1.182,1.182,0,0,0-.545-.1Zm0-1.737h1.512a3.747,3.747,0,0,0,1.192-.171,2.305,2.305,0,0,0,.837-.473,1.9,1.9,0,0,0,.491-.715,2.474,2.474,0,0,0,.162-.909,1.848,1.848,0,0,0-.653-1.521,3.121,3.121,0,0,0-1.993-.531H75.762ZM90.837-5.058V0H88.416V-5.058l-4.743-7.956h2.133a.759.759,0,0,1,.5.153,1.289,1.289,0,0,1,.311.387L89-8.127q.207.387.36.734t.279.68q.117-.342.266-.689t.355-.724l2.367-4.347a1.2,1.2,0,0,1,.3-.369.744.744,0,0,1,.5-.171h2.142Z" transform="translate(894 5395)" fill="#fff"/>
    <path id="Path_29785" data-name="Path 29785" d="M1.314,0V-13.014H5.8a8.508,8.508,0,0,1,2.182.243,4.161,4.161,0,0,1,1.485.693,2.689,2.689,0,0,1,.851,1.089,3.667,3.667,0,0,1,.27,1.44,2.84,2.84,0,0,1-.135.877,2.539,2.539,0,0,1-.418.783,3.135,3.135,0,0,1-.72.662,4.353,4.353,0,0,1-1.04.5q2.682.6,2.682,2.9a3.694,3.694,0,0,1-.315,1.53,3.375,3.375,0,0,1-.918,1.211,4.386,4.386,0,0,1-1.485.8A6.488,6.488,0,0,1,6.228,0ZM3.735-5.706V-1.89H6.192a3.4,3.4,0,0,0,1.129-.162,1.961,1.961,0,0,0,.729-.432,1.583,1.583,0,0,0,.4-.63,2.376,2.376,0,0,0,.122-.765,2.033,2.033,0,0,0-.135-.761,1.426,1.426,0,0,0-.423-.576,1.978,1.978,0,0,0-.738-.364,4.084,4.084,0,0,0-1.089-.126Zm0-1.674H5.67a3.242,3.242,0,0,0,1.872-.45,1.628,1.628,0,0,0,.639-1.431,1.7,1.7,0,0,0-.576-1.449,3.012,3.012,0,0,0-1.8-.432H3.735ZM19.575-5.4q.153.288.284.6t.256.626q.126-.324.261-.639t.288-.6l3.852-7.209a1,1,0,0,1,.149-.216.459.459,0,0,1,.171-.117.755.755,0,0,1,.212-.045q.117-.009.279-.009h1.827V0H25.02V-8.406q0-.234.014-.513t.041-.567l-3.933,7.38a1.037,1.037,0,0,1-.351.391.908.908,0,0,1-.5.14h-.333a.908.908,0,0,1-.5-.14,1.037,1.037,0,0,1-.351-.391L15.111-9.513q.036.3.05.581t.013.526V0H13.041V-13.014h1.827q.162,0,.279.009a.755.755,0,0,1,.212.045.5.5,0,0,1,.175.117.909.909,0,0,1,.153.216ZM32.508,0h-2.43V-13.014h2.43Zm8.9-5.085V0H38.988V-13.014h3.969a8.29,8.29,0,0,1,2.281.274,4.347,4.347,0,0,1,1.557.769,2.971,2.971,0,0,1,.891,1.184A3.946,3.946,0,0,1,47.97-9.27a3.93,3.93,0,0,1-.194,1.242,3.594,3.594,0,0,1-.558,1.062,3.761,3.761,0,0,1-.9.837,4.718,4.718,0,0,1-1.219.576,2.4,2.4,0,0,1,.792.747L49.149,0H46.971a1.063,1.063,0,0,1-.536-.126,1.1,1.1,0,0,1-.374-.36L43.326-4.653a.96.96,0,0,0-.338-.333,1.182,1.182,0,0,0-.544-.1Zm0-1.737h1.512a3.747,3.747,0,0,0,1.193-.171,2.305,2.305,0,0,0,.837-.473,1.9,1.9,0,0,0,.49-.715A2.474,2.474,0,0,0,45.6-9.09a1.848,1.848,0,0,0-.652-1.521,3.121,3.121,0,0,0-1.993-.531H41.409ZM62.136,0H60.264a.818.818,0,0,1-.518-.157.9.9,0,0,1-.292-.392L58.482-3.2H53.091L52.119-.549a.852.852,0,0,1-.284.378A.8.8,0,0,1,51.318,0H49.437l5.112-13.014h2.475ZM53.712-4.914h4.149L56.277-9.243q-.108-.288-.239-.679t-.257-.851q-.126.459-.247.855t-.239.693Zm11.034-8.1a2.239,2.239,0,0,1,.27.014.633.633,0,0,1,.193.054.649.649,0,0,1,.167.117,1.876,1.876,0,0,1,.18.2l6.831,8.7q-.036-.315-.05-.616T72.324-5.1v-7.911h2.133V0H73.206a1.109,1.109,0,0,1-.477-.09,1.062,1.062,0,0,1-.369-.324l-6.8-8.667q.027.288.04.571t.014.518V0H63.477V-13.014ZM83.061-1.782a6.057,6.057,0,0,0,1.426-.148,6.009,6.009,0,0,0,1.157-.41V-4.707H84.015a.509.509,0,0,1-.369-.131.427.427,0,0,1-.135-.319V-6.525H87.84V-1.26a7.15,7.15,0,0,1-1.031.625A6.581,6.581,0,0,1,85.667-.2a8.755,8.755,0,0,1-1.3.256,12.23,12.23,0,0,1-1.494.086,6.787,6.787,0,0,1-2.619-.5,6.222,6.222,0,0,1-2.07-1.377A6.27,6.27,0,0,1,76.82-3.834a7.121,7.121,0,0,1-.491-2.673A7.351,7.351,0,0,1,76.806-9.2,6.072,6.072,0,0,1,78.161-11.3a6.047,6.047,0,0,1,2.128-1.368,7.7,7.7,0,0,1,2.808-.486,7.321,7.321,0,0,1,2.758.472,6.362,6.362,0,0,1,1.976,1.229l-.7,1.1a.624.624,0,0,1-.549.333.817.817,0,0,1-.441-.144q-.288-.171-.59-.342a3.989,3.989,0,0,0-.666-.3,5.43,5.43,0,0,0-.819-.207,6.03,6.03,0,0,0-1.049-.081,4.492,4.492,0,0,0-1.742.324,3.684,3.684,0,0,0-1.327.927A4.178,4.178,0,0,0,79.1-8.4a5.678,5.678,0,0,0-.3,1.89,5.907,5.907,0,0,0,.315,2A4.2,4.2,0,0,0,80-3.024a3.8,3.8,0,0,0,1.35.922A4.484,4.484,0,0,0,83.061-1.782ZM98.307-13.014v1.926H92.538v3.609h4.545v1.863H92.538v3.681h5.769V0H90.1V-13.014Zm7.695-.36v7.659h.414a.8.8,0,0,0,.351-.063.91.91,0,0,0,.27-.234l2.295-2.835a1.341,1.341,0,0,1,.324-.283.861.861,0,0,1,.45-.1h2.034L109.269-5.8a3.939,3.939,0,0,1-.315.346,2.051,2.051,0,0,1-.351.275,1.659,1.659,0,0,1,.333.315q.144.18.288.387L112.3,0H110.3a.979.979,0,0,1-.441-.09A.864.864,0,0,1,109.53-.4l-2.349-3.5a.716.716,0,0,0-.27-.27,1,1,0,0,0-.4-.063H106V0h-2.223V-13.374ZM116.874-9.4a4.913,4.913,0,0,1,1.116.121,3.8,3.8,0,0,1,.954.356H121.6v.828a.46.46,0,0,1-.108.324.642.642,0,0,1-.369.162l-.828.153a2.861,2.861,0,0,1,.139.5,2.943,2.943,0,0,1,.049.549,2.747,2.747,0,0,1-.274,1.237,2.774,2.774,0,0,1-.756.941,3.51,3.51,0,0,1-1.143.6,4.69,4.69,0,0,1-1.435.211,5.173,5.173,0,0,1-1.017-.1q-.432.261-.432.585a.431.431,0,0,0,.257.41,2.1,2.1,0,0,0,.675.184,9.34,9.34,0,0,0,.95.067q.531.014,1.089.059a8.574,8.574,0,0,1,1.089.158,3.2,3.2,0,0,1,.95.355,1.9,1.9,0,0,1,.675.661,2.032,2.032,0,0,1,.257,1.076,2.532,2.532,0,0,1-.3,1.188,3.192,3.192,0,0,1-.873,1.026,4.56,4.56,0,0,1-1.4.725,6,6,0,0,1-1.89.274,7.276,7.276,0,0,1-1.827-.2,4.265,4.265,0,0,1-1.283-.54,2.342,2.342,0,0,1-.76-.778,1.825,1.825,0,0,1-.252-.918,1.57,1.57,0,0,1,.4-1.089,2.713,2.713,0,0,1,1.1-.7,1.531,1.531,0,0,1-.549-.5,1.467,1.467,0,0,1-.207-.819,1.374,1.374,0,0,1,.072-.427,1.708,1.708,0,0,1,.22-.437,2.15,2.15,0,0,1,.374-.41,2.577,2.577,0,0,1,.531-.346,2.913,2.913,0,0,1-1.1-1.008,2.692,2.692,0,0,1-.4-1.476,2.747,2.747,0,0,1,.274-1.238,2.773,2.773,0,0,1,.765-.945,3.489,3.489,0,0,1,1.161-.6A4.937,4.937,0,0,1,116.874-9.4Zm2.439,9.81a.615.615,0,0,0-.162-.441,1.065,1.065,0,0,0-.441-.265,3.262,3.262,0,0,0-.653-.14q-.374-.045-.792-.067L116.4-.544q-.446-.023-.859-.076a2.01,2.01,0,0,0-.608.491,1.008,1.008,0,0,0-.229.652.9.9,0,0,0,.122.455,1.014,1.014,0,0,0,.387.365,2.3,2.3,0,0,0,.688.238,5.323,5.323,0,0,0,1.035.085,5.278,5.278,0,0,0,1.071-.094,2.577,2.577,0,0,0,.743-.261,1.123,1.123,0,0,0,.427-.4A.968.968,0,0,0,119.313.414Zm-2.439-5.256a2.086,2.086,0,0,0,.72-.112,1.413,1.413,0,0,0,.508-.311,1.279,1.279,0,0,0,.306-.477,1.747,1.747,0,0,0,.1-.612,1.447,1.447,0,0,0-.41-1.085,1.692,1.692,0,0,0-1.228-.4,1.692,1.692,0,0,0-1.229.4,1.447,1.447,0,0,0-.41,1.085,1.72,1.72,0,0,0,.1.6,1.322,1.322,0,0,0,.306.482,1.375,1.375,0,0,0,.513.315A2.1,2.1,0,0,0,116.874-4.842ZM123.768.027a1.315,1.315,0,0,1-.207.36,1.229,1.229,0,0,1-.288.257,1.357,1.357,0,0,1-.342.157,1.218,1.218,0,0,1-.351.054h-.936L126.9-12.591a1.268,1.268,0,0,1,.441-.58,1.174,1.174,0,0,1,.693-.2h.945Zm5.3-.027V-9.234h1.359a.546.546,0,0,1,.567.4l.144.684a5.26,5.26,0,0,1,.508-.495,3.267,3.267,0,0,1,.567-.387,3.071,3.071,0,0,1,.648-.256,2.885,2.885,0,0,1,.76-.095,2.156,2.156,0,0,1,1.436.473A2.845,2.845,0,0,1,135.9-7.65a2.818,2.818,0,0,1,.54-.787,2.951,2.951,0,0,1,.711-.535,3.272,3.272,0,0,1,.824-.306,3.955,3.955,0,0,1,.877-.1,3.687,3.687,0,0,1,1.359.234,2.607,2.607,0,0,1,1,.684,3.015,3.015,0,0,1,.617,1.1,4.782,4.782,0,0,1,.212,1.485V0h-2.223V-5.877a1.975,1.975,0,0,0-.387-1.327,1.421,1.421,0,0,0-1.134-.446,1.693,1.693,0,0,0-.634.117,1.512,1.512,0,0,0-.513.338,1.541,1.541,0,0,0-.346.554,2.153,2.153,0,0,0-.126.765V0h-2.232V-5.877a2.011,2.011,0,0,0-.374-1.35,1.393,1.393,0,0,0-1.1-.423,1.78,1.78,0,0,0-.9.239,3.016,3.016,0,0,0-.779.653V0ZM146.2-13.675a2.851,2.851,0,0,1,.961.155,2.161,2.161,0,0,1,.745.438,1.984,1.984,0,0,1,.483.682,2.2,2.2,0,0,1,.173.887,2.364,2.364,0,0,1-.123.777,3.23,3.23,0,0,1-.331.682,4.6,4.6,0,0,1-.486.63q-.278.3-.583.619l-1.711,1.748a4.145,4.145,0,0,1,.493-.113,2.873,2.873,0,0,1,.462-.039h1.948a.462.462,0,0,1,.333.118.412.412,0,0,1,.123.312V-6h-5.208v-.43a.752.752,0,0,1,.055-.273.762.762,0,0,1,.176-.262l2.3-2.31q.289-.294.517-.562a3.792,3.792,0,0,0,.383-.53,2.422,2.422,0,0,0,.236-.533,1.966,1.966,0,0,0,.081-.57,1.349,1.349,0,0,0-.079-.48.941.941,0,0,0-.226-.349.947.947,0,0,0-.349-.213,1.366,1.366,0,0,0-.454-.071,1.21,1.21,0,0,0-.769.236,1.237,1.237,0,0,0-.423.635.527.527,0,0,1-.173.286.477.477,0,0,1-.294.087,1.06,1.06,0,0,1-.173-.016l-.682-.121a2.815,2.815,0,0,1,.3-.958,2.3,2.3,0,0,1,.564-.688,2.338,2.338,0,0,1,.777-.415A3.1,3.1,0,0,1,146.2-13.675Z" transform="translate(1064 5395)" fill="#fff"/>
    <path id="Path_29793" data-name="Path 29793" d="M1.251-6.516l7.128-3.717v1.584a.622.622,0,0,1-.09.329.728.728,0,0,1-.3.256L4.725-6.39a2.977,2.977,0,0,1-.437.185q-.229.077-.49.139.261.063.49.139a2.977,2.977,0,0,1,.437.185L7.992-4.059a.728.728,0,0,1,.3.256.622.622,0,0,1,.09.329V-1.89L1.251-5.616Zm11.61,4.851H15.5V-9.252q0-.441.027-.927L13.653-8.613a.664.664,0,0,1-.239.135.837.837,0,0,1-.238.036.707.707,0,0,1-.328-.076.613.613,0,0,1-.22-.175l-.7-.963,3.969-3.375h1.827V-1.665h2.34V0h-7.2ZM26.1.144a5.942,5.942,0,0,1-1.84-.27,4.247,4.247,0,0,1-1.427-.765,3.434,3.434,0,0,1-.922-1.2,3.65,3.65,0,0,1-.329-1.566A3.273,3.273,0,0,1,22.149-5.6a3.336,3.336,0,0,1,1.764-1.184,3.012,3.012,0,0,1-1.426-1.125,3.157,3.157,0,0,1-.472-1.755,3.186,3.186,0,0,1,.3-1.377,3.38,3.38,0,0,1,.842-1.111,3.919,3.919,0,0,1,1.292-.738,4.928,4.928,0,0,1,1.651-.266,4.928,4.928,0,0,1,1.652.266,3.919,3.919,0,0,1,1.292.738,3.38,3.38,0,0,1,.841,1.111,3.186,3.186,0,0,1,.3,1.377,3.134,3.134,0,0,1-.477,1.755,3.044,3.044,0,0,1-1.422,1.125A3.336,3.336,0,0,1,30.051-5.6a3.273,3.273,0,0,1,.567,1.949,3.65,3.65,0,0,1-.329,1.566,3.434,3.434,0,0,1-.922,1.2,4.247,4.247,0,0,1-1.427.765A5.942,5.942,0,0,1,26.1.144Zm0-1.737a2.7,2.7,0,0,0,.963-.157,1.986,1.986,0,0,0,.7-.437,1.8,1.8,0,0,0,.427-.666,2.381,2.381,0,0,0,.144-.837,2.1,2.1,0,0,0-.594-1.62A2.321,2.321,0,0,0,26.1-5.859a2.321,2.321,0,0,0-1.638.549,2.1,2.1,0,0,0-.594,1.62,2.381,2.381,0,0,0,.144.837,1.8,1.8,0,0,0,.427.666,1.986,1.986,0,0,0,.7.437A2.7,2.7,0,0,0,26.1-1.593Zm0-6.012a2.156,2.156,0,0,0,.909-.171,1.6,1.6,0,0,0,.594-.455,1.726,1.726,0,0,0,.32-.648,2.982,2.982,0,0,0,.094-.752,2.1,2.1,0,0,0-.117-.7,1.7,1.7,0,0,0-.351-.59,1.679,1.679,0,0,0-.594-.409,2.177,2.177,0,0,0-.855-.153,2.177,2.177,0,0,0-.855.153,1.725,1.725,0,0,0-.6.409,1.615,1.615,0,0,0-.351.59,2.178,2.178,0,0,0-.113.7,2.982,2.982,0,0,0,.095.752,1.726,1.726,0,0,0,.319.648,1.6,1.6,0,0,0,.594.455A2.156,2.156,0,0,0,26.1-7.605Zm5.877,6.381a1.384,1.384,0,0,1,.1-.531,1.269,1.269,0,0,1,.288-.432,1.418,1.418,0,0,1,.437-.288,1.356,1.356,0,0,1,.54-.108,1.334,1.334,0,0,1,.531.108,1.362,1.362,0,0,1,.432.288,1.362,1.362,0,0,1,.288.432,1.334,1.334,0,0,1,.108.531,1.324,1.324,0,0,1-.108.536,1.376,1.376,0,0,1-.288.428,1.3,1.3,0,0,1-.432.283,1.384,1.384,0,0,1-.531.1,1.407,1.407,0,0,1-.54-.1,1.355,1.355,0,0,1-.437-.283,1.279,1.279,0,0,1-.288-.428A1.374,1.374,0,0,1,31.977-1.224ZM44.271-12.069a1.038,1.038,0,0,1-.3.774,1.4,1.4,0,0,1-1,.3H39.384L38.916-8.28a8.113,8.113,0,0,1,1.611-.18,4.912,4.912,0,0,1,1.8.306,3.712,3.712,0,0,1,1.31.846,3.549,3.549,0,0,1,.8,1.264,4.436,4.436,0,0,1,.27,1.562,4.771,4.771,0,0,1-.364,1.89,4.277,4.277,0,0,1-1.013,1.463,4.559,4.559,0,0,1-1.535.94A5.447,5.447,0,0,1,39.87.144,5.178,5.178,0,0,1,38.709.018a5.76,5.76,0,0,1-1.031-.338,5.746,5.746,0,0,1-.891-.486,5.632,5.632,0,0,1-.734-.581l.684-.945a.672.672,0,0,1,.576-.306.851.851,0,0,1,.454.144q.229.144.536.315a4.663,4.663,0,0,0,.711.315A2.943,2.943,0,0,0,40-1.719a2.752,2.752,0,0,0,1.08-.2,2.1,2.1,0,0,0,.778-.553,2.37,2.37,0,0,0,.468-.846,3.471,3.471,0,0,0,.158-1.066,2.207,2.207,0,0,0-.617-1.661,2.5,2.5,0,0,0-1.813-.6,5.6,5.6,0,0,0-1.9.342l-1.386-.4,1.08-6.318h6.426Z" transform="translate(1116 5453)" fill="#333"/>
    <path id="Path_29794" data-name="Path 29794" d="M2.421-1.665H5.058V-9.252q0-.441.027-.927L3.213-8.613a.664.664,0,0,1-.238.135.837.837,0,0,1-.239.036.707.707,0,0,1-.328-.076.613.613,0,0,1-.22-.175l-.7-.963,3.969-3.375H7.281V-1.665h2.34V0h-7.2ZM15.66.144a5.942,5.942,0,0,1-1.84-.27,4.247,4.247,0,0,1-1.427-.765,3.434,3.434,0,0,1-.922-1.2,3.65,3.65,0,0,1-.329-1.566A3.273,3.273,0,0,1,11.709-5.6a3.336,3.336,0,0,1,1.764-1.184,3.012,3.012,0,0,1-1.427-1.125,3.157,3.157,0,0,1-.472-1.755,3.186,3.186,0,0,1,.3-1.377,3.38,3.38,0,0,1,.841-1.111,3.919,3.919,0,0,1,1.292-.738,4.928,4.928,0,0,1,1.652-.266,4.928,4.928,0,0,1,1.652.266,3.919,3.919,0,0,1,1.292.738,3.38,3.38,0,0,1,.841,1.111,3.186,3.186,0,0,1,.3,1.377,3.134,3.134,0,0,1-.477,1.755,3.044,3.044,0,0,1-1.422,1.125A3.336,3.336,0,0,1,19.611-5.6a3.273,3.273,0,0,1,.567,1.949,3.65,3.65,0,0,1-.329,1.566,3.434,3.434,0,0,1-.922,1.2A4.247,4.247,0,0,1,17.5-.126,5.942,5.942,0,0,1,15.66.144Zm0-1.737a2.7,2.7,0,0,0,.963-.157,1.986,1.986,0,0,0,.7-.437,1.8,1.8,0,0,0,.427-.666,2.381,2.381,0,0,0,.144-.837A2.1,2.1,0,0,0,17.3-5.31a2.321,2.321,0,0,0-1.638-.549,2.321,2.321,0,0,0-1.638.549,2.1,2.1,0,0,0-.594,1.62,2.381,2.381,0,0,0,.144.837A1.8,1.8,0,0,0,14-2.187a1.986,1.986,0,0,0,.7.437A2.7,2.7,0,0,0,15.66-1.593Zm0-6.012a2.156,2.156,0,0,0,.909-.171,1.6,1.6,0,0,0,.594-.455,1.726,1.726,0,0,0,.32-.648,2.982,2.982,0,0,0,.094-.752,2.1,2.1,0,0,0-.117-.7,1.7,1.7,0,0,0-.351-.59,1.679,1.679,0,0,0-.594-.409,2.177,2.177,0,0,0-.855-.153,2.177,2.177,0,0,0-.855.153,1.725,1.725,0,0,0-.6.409,1.615,1.615,0,0,0-.351.59,2.178,2.178,0,0,0-.112.7,2.982,2.982,0,0,0,.094.752,1.726,1.726,0,0,0,.319.648,1.6,1.6,0,0,0,.594.455A2.156,2.156,0,0,0,15.66-7.605Zm5.877,6.381a1.384,1.384,0,0,1,.1-.531,1.269,1.269,0,0,1,.288-.432,1.418,1.418,0,0,1,.437-.288,1.356,1.356,0,0,1,.54-.108,1.334,1.334,0,0,1,.531.108,1.362,1.362,0,0,1,.432.288,1.362,1.362,0,0,1,.288.432,1.334,1.334,0,0,1,.108.531,1.324,1.324,0,0,1-.108.536,1.375,1.375,0,0,1-.288.428,1.3,1.3,0,0,1-.432.283,1.384,1.384,0,0,1-.531.1,1.407,1.407,0,0,1-.54-.1,1.354,1.354,0,0,1-.437-.283,1.28,1.28,0,0,1-.288-.428A1.374,1.374,0,0,1,21.537-1.224ZM33.831-12.069a1.038,1.038,0,0,1-.3.774,1.4,1.4,0,0,1-1,.3H28.944L28.476-8.28a8.113,8.113,0,0,1,1.611-.18,4.912,4.912,0,0,1,1.8.306,3.712,3.712,0,0,1,1.309.846A3.549,3.549,0,0,1,34-6.044a4.436,4.436,0,0,1,.27,1.562,4.771,4.771,0,0,1-.364,1.89A4.277,4.277,0,0,1,32.9-1.129a4.559,4.559,0,0,1-1.535.94A5.447,5.447,0,0,1,29.43.144,5.178,5.178,0,0,1,28.269.018a5.76,5.76,0,0,1-1.031-.338,5.746,5.746,0,0,1-.891-.486,5.632,5.632,0,0,1-.733-.581l.684-.945a.672.672,0,0,1,.576-.306.851.851,0,0,1,.455.144q.229.144.535.315a4.663,4.663,0,0,0,.711.315,2.943,2.943,0,0,0,.981.144,2.752,2.752,0,0,0,1.08-.2,2.1,2.1,0,0,0,.779-.553,2.37,2.37,0,0,0,.468-.846,3.471,3.471,0,0,0,.158-1.066,2.207,2.207,0,0,0-.617-1.661,2.5,2.5,0,0,0-1.813-.6,5.6,5.6,0,0,0-1.9.342l-1.386-.4,1.08-6.318h6.426Zm5.913,5.706h4.662v1.854H39.744Zm14.454-6.8a4.888,4.888,0,0,1,1.647.266,3.7,3.7,0,0,1,1.278.752,3.4,3.4,0,0,1,.828,1.17,3.78,3.78,0,0,1,.3,1.521,4.053,4.053,0,0,1-.212,1.332,5.538,5.538,0,0,1-.567,1.17,7.878,7.878,0,0,1-.832,1.08q-.477.522-1,1.062l-2.934,3A7.108,7.108,0,0,1,53.55-2a4.925,4.925,0,0,1,.792-.067h3.339a.792.792,0,0,1,.571.2.707.707,0,0,1,.211.535V0H49.536V-.738a1.289,1.289,0,0,1,.094-.468,1.306,1.306,0,0,1,.3-.45l3.951-3.96q.495-.5.887-.963a6.5,6.5,0,0,0,.657-.909,4.151,4.151,0,0,0,.4-.913,3.37,3.37,0,0,0,.14-.977,2.312,2.312,0,0,0-.135-.823,1.613,1.613,0,0,0-.387-.6,1.624,1.624,0,0,0-.6-.364,2.343,2.343,0,0,0-.778-.122,2.075,2.075,0,0,0-1.319.4,2.122,2.122,0,0,0-.724,1.089.9.9,0,0,1-.3.491.817.817,0,0,1-.5.148,1.818,1.818,0,0,1-.3-.027l-1.17-.207a4.827,4.827,0,0,1,.522-1.642,3.938,3.938,0,0,1,.968-1.179,4.007,4.007,0,0,1,1.332-.711A5.312,5.312,0,0,1,54.2-13.158ZM67.7-4.905h1.638v1.287a.45.45,0,0,1-.117.31.436.436,0,0,1-.342.131H67.7V0H65.754V-3.177h-5.49a.608.608,0,0,1-.4-.14.6.6,0,0,1-.216-.347l-.225-1.125,6.165-8.235H67.7ZM65.754-9.162q0-.288.018-.621t.063-.693L61.794-4.905h3.96Zm4.563,7.938a1.384,1.384,0,0,1,.1-.531,1.269,1.269,0,0,1,.288-.432,1.418,1.418,0,0,1,.437-.288,1.356,1.356,0,0,1,.54-.108,1.334,1.334,0,0,1,.531.108,1.362,1.362,0,0,1,.432.288,1.362,1.362,0,0,1,.288.432,1.334,1.334,0,0,1,.108.531,1.324,1.324,0,0,1-.108.536,1.375,1.375,0,0,1-.288.428,1.3,1.3,0,0,1-.432.283,1.384,1.384,0,0,1-.531.1,1.407,1.407,0,0,1-.54-.1,1.355,1.355,0,0,1-.437-.283,1.28,1.28,0,0,1-.288-.428A1.374,1.374,0,0,1,70.317-1.224ZM78.48-5.193a3.868,3.868,0,0,1-1.323-.234A3.359,3.359,0,0,1,76-6.134a3.483,3.483,0,0,1-.814-1.17,4.038,4.038,0,0,1-.306-1.633,4.156,4.156,0,0,1,.324-1.638,4.114,4.114,0,0,1,.909-1.341,4.264,4.264,0,0,1,1.4-.909,4.76,4.76,0,0,1,1.809-.333,4.848,4.848,0,0,1,1.8.315,3.915,3.915,0,0,1,1.359.882,3.845,3.845,0,0,1,.864,1.359,4.845,4.845,0,0,1,.3,1.737,6.066,6.066,0,0,1-.1,1.143,6,6,0,0,1-.3,1.039,7.2,7.2,0,0,1-.464.972q-.27.473-.6.95L79.2-.513a1.18,1.18,0,0,1-.454.365A1.538,1.538,0,0,1,78.057,0H76.014l4.041-5.049q.153-.189.288-.369t.261-.36a3.59,3.59,0,0,1-.99.437A4.258,4.258,0,0,1,78.48-5.193Zm3.033-3.9a2.615,2.615,0,0,0-.162-.949,1.948,1.948,0,0,0-.459-.707,2.013,2.013,0,0,0-.706-.441,2.54,2.54,0,0,0-.9-.153,2.371,2.371,0,0,0-.909.167,1.977,1.977,0,0,0-.688.463,2.047,2.047,0,0,0-.437.707,2.54,2.54,0,0,0-.153.9,2.271,2.271,0,0,0,.563,1.661,2.141,2.141,0,0,0,1.6.571,2.517,2.517,0,0,0,.958-.171,2.049,2.049,0,0,0,.707-.468,1.969,1.969,0,0,0,.437-.7A2.517,2.517,0,0,0,81.513-9.09Z" transform="translate(1097 5511)" fill="#333"/>
    <path id="Path_29795" data-name="Path 29795" d="M5.418-13.158a4.888,4.888,0,0,1,1.647.266,3.7,3.7,0,0,1,1.278.752,3.4,3.4,0,0,1,.828,1.17,3.78,3.78,0,0,1,.3,1.521,4.053,4.053,0,0,1-.212,1.332,5.538,5.538,0,0,1-.567,1.17,7.878,7.878,0,0,1-.832,1.08q-.477.522-1,1.062l-2.934,3A7.108,7.108,0,0,1,4.77-2a4.925,4.925,0,0,1,.792-.067H8.9a.792.792,0,0,1,.571.2.707.707,0,0,1,.212.535V0H.756V-.738A1.289,1.289,0,0,1,.85-1.206a1.306,1.306,0,0,1,.3-.45L5.1-5.616q.495-.5.887-.963a6.5,6.5,0,0,0,.657-.909A4.151,4.151,0,0,0,7.052-8.4a3.37,3.37,0,0,0,.139-.977,2.312,2.312,0,0,0-.135-.823,1.613,1.613,0,0,0-.387-.6,1.624,1.624,0,0,0-.6-.364,2.343,2.343,0,0,0-.779-.122,2.075,2.075,0,0,0-1.318.4,2.122,2.122,0,0,0-.724,1.089.9.9,0,0,1-.3.491.817.817,0,0,1-.5.148,1.818,1.818,0,0,1-.3-.027L.981-9.387A4.826,4.826,0,0,1,1.5-11.03a3.938,3.938,0,0,1,.967-1.179A4.007,4.007,0,0,1,3.8-12.92,5.312,5.312,0,0,1,5.418-13.158Zm13.923,1.089a1.038,1.038,0,0,1-.3.774,1.4,1.4,0,0,1-1,.3H14.454L13.986-8.28A8.113,8.113,0,0,1,15.6-8.46a4.912,4.912,0,0,1,1.8.306,3.712,3.712,0,0,1,1.309.846,3.549,3.549,0,0,1,.8,1.264,4.436,4.436,0,0,1,.27,1.562,4.771,4.771,0,0,1-.365,1.89A4.277,4.277,0,0,1,18.4-1.129a4.559,4.559,0,0,1-1.535.94,5.447,5.447,0,0,1-1.93.333A5.178,5.178,0,0,1,13.779.018a5.76,5.76,0,0,1-1.03-.338,5.746,5.746,0,0,1-.891-.486,5.632,5.632,0,0,1-.734-.581l.684-.945a.672.672,0,0,1,.576-.306.851.851,0,0,1,.454.144q.23.144.536.315a4.663,4.663,0,0,0,.711.315,2.943,2.943,0,0,0,.981.144,2.752,2.752,0,0,0,1.08-.2,2.1,2.1,0,0,0,.778-.553,2.37,2.37,0,0,0,.468-.846,3.471,3.471,0,0,0,.157-1.066,2.207,2.207,0,0,0-.617-1.661,2.5,2.5,0,0,0-1.813-.6,5.6,5.6,0,0,0-1.9.342l-1.386-.4,1.08-6.318h6.426Zm5.913,5.706h4.662v1.854H25.254Zm14.454-6.8a4.888,4.888,0,0,1,1.647.266,3.7,3.7,0,0,1,1.278.752,3.4,3.4,0,0,1,.828,1.17,3.78,3.78,0,0,1,.3,1.521,4.053,4.053,0,0,1-.212,1.332,5.538,5.538,0,0,1-.567,1.17,7.878,7.878,0,0,1-.832,1.08q-.477.522-1,1.062l-2.934,3A7.108,7.108,0,0,1,39.06-2a4.925,4.925,0,0,1,.792-.067h3.339a.792.792,0,0,1,.571.2.707.707,0,0,1,.211.535V0H35.046V-.738a1.289,1.289,0,0,1,.094-.468,1.306,1.306,0,0,1,.3-.45l3.951-3.96q.495-.5.887-.963a6.5,6.5,0,0,0,.657-.909,4.151,4.151,0,0,0,.4-.913,3.37,3.37,0,0,0,.14-.977,2.312,2.312,0,0,0-.135-.823,1.613,1.613,0,0,0-.387-.6,1.624,1.624,0,0,0-.6-.364,2.343,2.343,0,0,0-.778-.122,2.075,2.075,0,0,0-1.319.4,2.122,2.122,0,0,0-.724,1.089.9.9,0,0,1-.3.491.817.817,0,0,1-.5.148,1.818,1.818,0,0,1-.3-.027l-1.17-.207a4.827,4.827,0,0,1,.522-1.642,3.938,3.938,0,0,1,.968-1.179,4.007,4.007,0,0,1,1.332-.711A5.312,5.312,0,0,1,39.708-13.158ZM49.5-5.193a3.868,3.868,0,0,1-1.323-.234,3.359,3.359,0,0,1-1.156-.707,3.482,3.482,0,0,1-.814-1.17A4.038,4.038,0,0,1,45.9-8.937a4.156,4.156,0,0,1,.324-1.638,4.114,4.114,0,0,1,.909-1.341,4.264,4.264,0,0,1,1.4-.909,4.76,4.76,0,0,1,1.809-.333,4.848,4.848,0,0,1,1.8.315,3.915,3.915,0,0,1,1.359.882,3.845,3.845,0,0,1,.864,1.359,4.845,4.845,0,0,1,.3,1.737,6.066,6.066,0,0,1-.1,1.143,6,6,0,0,1-.3,1.039,7.2,7.2,0,0,1-.463.972q-.27.473-.6.95L50.22-.513a1.18,1.18,0,0,1-.455.365A1.538,1.538,0,0,1,49.077,0H47.034l4.041-5.049q.153-.189.288-.369t.261-.36a3.59,3.59,0,0,1-.99.437A4.258,4.258,0,0,1,49.5-5.193Zm3.033-3.9a2.615,2.615,0,0,0-.162-.949,1.948,1.948,0,0,0-.459-.707,2.014,2.014,0,0,0-.707-.441,2.539,2.539,0,0,0-.9-.153,2.371,2.371,0,0,0-.909.167,1.977,1.977,0,0,0-.688.463,2.047,2.047,0,0,0-.437.707,2.539,2.539,0,0,0-.153.9,2.271,2.271,0,0,0,.563,1.661,2.141,2.141,0,0,0,1.6.571,2.517,2.517,0,0,0,.958-.171,2.048,2.048,0,0,0,.706-.468,1.969,1.969,0,0,0,.437-.7A2.516,2.516,0,0,0,52.533-9.09Zm3.294,7.866a1.384,1.384,0,0,1,.1-.531,1.269,1.269,0,0,1,.288-.432,1.418,1.418,0,0,1,.437-.288,1.356,1.356,0,0,1,.54-.108,1.334,1.334,0,0,1,.531.108,1.362,1.362,0,0,1,.432.288,1.362,1.362,0,0,1,.288.432,1.334,1.334,0,0,1,.108.531,1.324,1.324,0,0,1-.108.536,1.376,1.376,0,0,1-.288.428,1.3,1.3,0,0,1-.432.283,1.384,1.384,0,0,1-.531.1,1.407,1.407,0,0,1-.54-.1,1.355,1.355,0,0,1-.437-.283,1.279,1.279,0,0,1-.288-.428A1.374,1.374,0,0,1,55.827-1.224ZM63.99-5.193a3.868,3.868,0,0,1-1.323-.234,3.359,3.359,0,0,1-1.156-.707A3.482,3.482,0,0,1,60.7-7.3a4.038,4.038,0,0,1-.306-1.633,4.156,4.156,0,0,1,.324-1.638,4.114,4.114,0,0,1,.909-1.341,4.264,4.264,0,0,1,1.4-.909,4.76,4.76,0,0,1,1.809-.333,4.848,4.848,0,0,1,1.8.315,3.915,3.915,0,0,1,1.359.882,3.845,3.845,0,0,1,.864,1.359,4.845,4.845,0,0,1,.3,1.737,6.066,6.066,0,0,1-.1,1.143,5.994,5.994,0,0,1-.3,1.039,7.2,7.2,0,0,1-.464.972q-.27.473-.6.95L64.71-.513a1.18,1.18,0,0,1-.454.365A1.538,1.538,0,0,1,63.567,0H61.524l4.041-5.049q.153-.189.288-.369t.261-.36a3.59,3.59,0,0,1-.99.437A4.258,4.258,0,0,1,63.99-5.193Zm3.033-3.9a2.615,2.615,0,0,0-.162-.949,1.948,1.948,0,0,0-.459-.707,2.013,2.013,0,0,0-.706-.441,2.54,2.54,0,0,0-.9-.153,2.371,2.371,0,0,0-.909.167,1.977,1.977,0,0,0-.689.463,2.047,2.047,0,0,0-.436.707,2.539,2.539,0,0,0-.153.9,2.271,2.271,0,0,0,.563,1.661,2.141,2.141,0,0,0,1.6.571,2.517,2.517,0,0,0,.958-.171,2.049,2.049,0,0,0,.707-.468,1.969,1.969,0,0,0,.437-.7A2.517,2.517,0,0,0,67.023-9.09Z" transform="translate(1104 5569)" fill="#333"/>
    <path id="Path_29799" data-name="Path 29799" d="M2.061-1.89V-3.474a.622.622,0,0,1,.09-.329.728.728,0,0,1,.3-.256L5.715-5.742a4.288,4.288,0,0,1,.927-.324q-.261-.063-.49-.139a2.977,2.977,0,0,1-.436-.185L2.448-8.064a.728.728,0,0,1-.3-.256.622.622,0,0,1-.09-.329v-1.584L9.189-6.516v.9Zm14-11.268a4.845,4.845,0,0,1,1.625.256,3.708,3.708,0,0,1,1.238.711,3.115,3.115,0,0,1,.788,1.067A3.2,3.2,0,0,1,19.989-9.8a3.872,3.872,0,0,1-.139,1.094,2.545,2.545,0,0,1-.4.823,2.455,2.455,0,0,1-.648.594,3.93,3.93,0,0,1-.868.405A3.4,3.4,0,0,1,19.674-5.76a3.043,3.043,0,0,1,.576,1.9,3.914,3.914,0,0,1-.36,1.719,3.694,3.694,0,0,1-.972,1.255,4.236,4.236,0,0,1-1.417.77A5.5,5.5,0,0,1,15.8.144a5.82,5.82,0,0,1-1.71-.225,3.713,3.713,0,0,1-1.269-.666,4.022,4.022,0,0,1-.918-1.08A7.288,7.288,0,0,1,11.25-3.3l.981-.4a1.291,1.291,0,0,1,.513-.108.871.871,0,0,1,.418.1.674.674,0,0,1,.283.288q.162.315.356.621a2.519,2.519,0,0,0,.464.544,2.206,2.206,0,0,0,.635.387,2.3,2.3,0,0,0,.868.148,2.46,2.46,0,0,0,.99-.184,2.15,2.15,0,0,0,.707-.482,1.974,1.974,0,0,0,.423-.661,2.038,2.038,0,0,0,.14-.734,3.4,3.4,0,0,0-.1-.851,1.261,1.261,0,0,0-.414-.652,2.249,2.249,0,0,0-.9-.423,6.524,6.524,0,0,0-1.58-.153V-7.452a5.624,5.624,0,0,0,1.359-.153,2.314,2.314,0,0,0,.86-.4,1.357,1.357,0,0,0,.445-.616,2.383,2.383,0,0,0,.126-.792,1.828,1.828,0,0,0-.5-1.4,1.933,1.933,0,0,0-1.377-.472,2.034,2.034,0,0,0-1.314.418A2.188,2.188,0,0,0,13.9-9.792a.98.98,0,0,1-.3.491.778.778,0,0,1-.495.148A1.865,1.865,0,0,1,12.8-9.18l-1.17-.207a4.826,4.826,0,0,1,.522-1.642,3.938,3.938,0,0,1,.968-1.179,4.007,4.007,0,0,1,1.332-.711A5.312,5.312,0,0,1,16.065-13.158ZM30.87-6.507a10.664,10.664,0,0,1-.365,2.957A6.056,6.056,0,0,1,29.5-1.476a4.076,4.076,0,0,1-1.521,1.22,4.508,4.508,0,0,1-1.895.4,4.448,4.448,0,0,1-1.885-.4,4.059,4.059,0,0,1-1.507-1.22,6.049,6.049,0,0,1-1-2.074,10.789,10.789,0,0,1-.36-2.957,10.778,10.778,0,0,1,.36-2.961,6.051,6.051,0,0,1,1-2.07,4.059,4.059,0,0,1,1.507-1.22,4.448,4.448,0,0,1,1.885-.4,4.508,4.508,0,0,1,1.895.4,4.076,4.076,0,0,1,1.521,1.22,6.059,6.059,0,0,1,1.008,2.07A10.652,10.652,0,0,1,30.87-6.507Zm-2.3,0a11,11,0,0,0-.207-2.34,4.707,4.707,0,0,0-.554-1.476,2.019,2.019,0,0,0-.8-.769,2.1,2.1,0,0,0-.936-.22,2.056,2.056,0,0,0-.922.22,2,2,0,0,0-.788.769,4.717,4.717,0,0,0-.545,1.476,11.24,11.24,0,0,0-.2,2.34,11.24,11.24,0,0,0,.2,2.34,4.717,4.717,0,0,0,.545,1.476,2,2,0,0,0,.788.77,2.056,2.056,0,0,0,.922.22,2.1,2.1,0,0,0,.936-.22,2.019,2.019,0,0,0,.8-.77,4.707,4.707,0,0,0,.554-1.476A11,11,0,0,0,28.575-6.507Z" transform="translate(1123 5627)" fill="#333"/>
    <path id="Path_29800" data-name="Path 29800" d="M6.651-1.7a3.37,3.37,0,0,0,1.336-.252,2.84,2.84,0,0,0,1-.7,3.047,3.047,0,0,0,.625-1.084,4.35,4.35,0,0,0,.216-1.409V-12.96h2.1v7.812a5.977,5.977,0,0,1-.365,2.115,4.808,4.808,0,0,1-1.049,1.678A4.828,4.828,0,0,1,8.851-.248a5.753,5.753,0,0,1-2.2.4,5.753,5.753,0,0,1-2.2-.4A4.828,4.828,0,0,1,2.79-1.355,4.808,4.808,0,0,1,1.742-3.033a5.977,5.977,0,0,1-.365-2.115V-12.96H3.483v7.8A4.35,4.35,0,0,0,3.7-3.749,3.131,3.131,0,0,0,4.32-2.66a2.77,2.77,0,0,0,.995.707A3.37,3.37,0,0,0,6.651-1.7ZM14.211,0V-9.18h1.17a.475.475,0,0,1,.5.369l.135.855a5.577,5.577,0,0,1,.607-.558,3.94,3.94,0,0,1,.68-.432,3.612,3.612,0,0,1,.77-.279,3.767,3.767,0,0,1,.886-.1,3.265,3.265,0,0,1,1.328.252,2.654,2.654,0,0,1,.963.711,3.063,3.063,0,0,1,.589,1.1,4.8,4.8,0,0,1,.2,1.418V0H20.115V-5.841a2.187,2.187,0,0,0-.427-1.44,1.6,1.6,0,0,0-1.3-.513,2.5,2.5,0,0,0-1.2.3,4.121,4.121,0,0,0-1.039.81V0ZM30.933,0a.47.47,0,0,1-.495-.369l-.171-.99a5.567,5.567,0,0,1-.612.607,3.907,3.907,0,0,1-.7.473,3.59,3.59,0,0,1-.8.306,3.665,3.665,0,0,1-.909.108,3.133,3.133,0,0,1-1.4-.31,3.021,3.021,0,0,1-1.08-.9,4.382,4.382,0,0,1-.7-1.471,7.427,7.427,0,0,1-.247-2.012,6.3,6.3,0,0,1,.274-1.9,4.636,4.636,0,0,1,.787-1.516,3.658,3.658,0,0,1,1.247-1.008,3.64,3.64,0,0,1,1.642-.365,3.329,3.329,0,0,1,1.377.257,3.348,3.348,0,0,1,1.017.715V-13.32H32.1V0ZM27.9-1.422a2.443,2.443,0,0,0,1.269-.315,3.688,3.688,0,0,0,1-.909V-6.921a2.423,2.423,0,0,0-.9-.725,2.578,2.578,0,0,0-1.049-.212,2.11,2.11,0,0,0-1.773.833,4,4,0,0,0-.639,2.461,6.259,6.259,0,0,0,.144,1.445,2.794,2.794,0,0,0,.414.977,1.6,1.6,0,0,0,.657.549A2.138,2.138,0,0,0,27.9-1.422Zm10.4-7.9a4.36,4.36,0,0,1,1.566.275,3.433,3.433,0,0,1,1.242.805,3.7,3.7,0,0,1,.815,1.3,4.9,4.9,0,0,1,.292,1.75,1.235,1.235,0,0,1-.1.6.4.4,0,0,1-.36.153h-5.9a4.611,4.611,0,0,0,.243,1.354,2.793,2.793,0,0,0,.554.949,2.153,2.153,0,0,0,.828.563,2.985,2.985,0,0,0,1.076.184,3.279,3.279,0,0,0,.981-.13,4.606,4.606,0,0,0,.72-.288q.306-.157.522-.288a.78.78,0,0,1,.4-.131.413.413,0,0,1,.36.18l.549.711a3.483,3.483,0,0,1-.774.684,4.51,4.51,0,0,1-.918.454,5.186,5.186,0,0,1-1,.252,6.771,6.771,0,0,1-1,.076,4.8,4.8,0,0,1-1.768-.319,3.933,3.933,0,0,1-1.413-.94,4.342,4.342,0,0,1-.936-1.539,6.111,6.111,0,0,1-.337-2.115,5.169,5.169,0,0,1,.3-1.782A4.251,4.251,0,0,1,35.114-8a4.057,4.057,0,0,1,1.368-.967A4.47,4.47,0,0,1,38.3-9.324Zm.036,1.4a2.238,2.238,0,0,0-1.656.6,2.925,2.925,0,0,0-.765,1.692h4.563a2.843,2.843,0,0,0-.139-.9,2.117,2.117,0,0,0-.41-.729,1.867,1.867,0,0,0-.671-.486A2.279,2.279,0,0,0,38.34-7.92ZM44.019,0V-9.18h1.125a.611.611,0,0,1,.423.113.691.691,0,0,1,.162.392l.108,1.2A4.155,4.155,0,0,1,46.89-8.851a2.247,2.247,0,0,1,1.467-.5,2.222,2.222,0,0,1,.558.068,1.569,1.569,0,0,1,.468.2l-.135,1.458a.362.362,0,0,1-.112.212.325.325,0,0,1-.2.059,2.172,2.172,0,0,1-.387-.05,2.751,2.751,0,0,0-.531-.049,2.059,2.059,0,0,0-.72.117,1.667,1.667,0,0,0-.558.342,2.365,2.365,0,0,0-.432.549,5.3,5.3,0,0,0-.351.738V0Zm5.688-9.18h1.53a.6.6,0,0,1,.373.113A.515.515,0,0,1,51.8-8.8l1.53,5.346q.09.369.157.715t.122.689q.09-.342.184-.689t.212-.715l1.719-5.373a.485.485,0,0,1,.185-.265.551.551,0,0,1,.338-.1H57.1a.585.585,0,0,1,.351.1.478.478,0,0,1,.189.265L59.31-3.456q.1.369.2.72t.18.693a13.328,13.328,0,0,1,.306-1.413L61.551-8.8a.549.549,0,0,1,.2-.27A.568.568,0,0,1,62.1-9.18h1.458L60.615,0H59.076q-.27,0-.378-.351L56.871-6.066q-.072-.243-.131-.482t-.1-.482q-.1.486-.243.972L54.54-.351A.416.416,0,0,1,54.117,0H52.65Zm18.954-.144a4.36,4.36,0,0,1,1.566.275,3.433,3.433,0,0,1,1.242.805,3.7,3.7,0,0,1,.814,1.3,4.9,4.9,0,0,1,.292,1.75,1.235,1.235,0,0,1-.1.6.4.4,0,0,1-.36.153H66.222a4.611,4.611,0,0,0,.243,1.354,2.793,2.793,0,0,0,.554.949,2.153,2.153,0,0,0,.828.563,2.985,2.985,0,0,0,1.076.184,3.279,3.279,0,0,0,.981-.13,4.606,4.606,0,0,0,.72-.288q.306-.157.522-.288a.78.78,0,0,1,.4-.131.413.413,0,0,1,.36.18l.549.711a3.483,3.483,0,0,1-.774.684,4.51,4.51,0,0,1-.918.454,5.186,5.186,0,0,1-1,.252,6.771,6.771,0,0,1-1,.076,4.8,4.8,0,0,1-1.769-.319,3.933,3.933,0,0,1-1.413-.94,4.342,4.342,0,0,1-.936-1.539,6.111,6.111,0,0,1-.338-2.115,5.169,5.169,0,0,1,.3-1.782A4.251,4.251,0,0,1,65.47-8a4.057,4.057,0,0,1,1.368-.967A4.47,4.47,0,0,1,68.661-9.324Zm.036,1.4a2.238,2.238,0,0,0-1.656.6,2.925,2.925,0,0,0-.765,1.692h4.563a2.844,2.844,0,0,0-.139-.9,2.118,2.118,0,0,0-.41-.729,1.867,1.867,0,0,0-.671-.486A2.279,2.279,0,0,0,68.7-7.92Zm7.695-1.26V0H74.457V-9.18Zm.324-2.772a1.21,1.21,0,0,1-.1.495,1.3,1.3,0,0,1-.284.41,1.381,1.381,0,0,1-.418.279,1.263,1.263,0,0,1-.508.1,1.179,1.179,0,0,1-.491-.1,1.3,1.3,0,0,1-.4-.279,1.382,1.382,0,0,1-.275-.41,1.21,1.21,0,0,1-.1-.495,1.232,1.232,0,0,1,.1-.5,1.382,1.382,0,0,1,.275-.41,1.3,1.3,0,0,1,.4-.279,1.179,1.179,0,0,1,.491-.1,1.263,1.263,0,0,1,.508.1,1.381,1.381,0,0,1,.418.279,1.3,1.3,0,0,1,.284.41A1.232,1.232,0,0,1,76.716-11.952Zm5.391,2.61a4.534,4.534,0,0,1,1.111.13,4.078,4.078,0,0,1,.95.365h2.574v.72q0,.36-.432.441l-.918.153a2.888,2.888,0,0,1,.234,1.161,2.775,2.775,0,0,1-.265,1.224,2.759,2.759,0,0,1-.734.936,3.31,3.31,0,0,1-1.116.594,4.591,4.591,0,0,1-1.4.207,4.931,4.931,0,0,1-.562-.031q-.274-.032-.535-.086a1.27,1.27,0,0,0-.387.324.586.586,0,0,0-.126.351.472.472,0,0,0,.261.441,2.057,2.057,0,0,0,.688.207,8.721,8.721,0,0,0,.976.081q.549.018,1.116.063a10.506,10.506,0,0,1,1.116.149,3.211,3.211,0,0,1,.977.342,1.916,1.916,0,0,1,.688.644A1.915,1.915,0,0,1,86.58.126a2.475,2.475,0,0,1-.3,1.161A3.125,3.125,0,0,1,85.424,2.3,4.449,4.449,0,0,1,84.051,3a5.915,5.915,0,0,1-1.845.266,7.143,7.143,0,0,1-1.786-.2,4.2,4.2,0,0,1-1.269-.535,2.3,2.3,0,0,1-.756-.779,1.851,1.851,0,0,1-.247-.918,1.605,1.605,0,0,1,.41-1.107,2.73,2.73,0,0,1,1.111-.72,1.571,1.571,0,0,1-.607-.5,1.374,1.374,0,0,1-.229-.828,1.308,1.308,0,0,1,.072-.414,1.658,1.658,0,0,1,.22-.428,2.181,2.181,0,0,1,.369-.4A2.67,2.67,0,0,1,80.01-3.9a2.877,2.877,0,0,1-1.076-1.008,2.722,2.722,0,0,1-.392-1.467,2.8,2.8,0,0,1,.266-1.233,2.713,2.713,0,0,1,.743-.936,3.406,3.406,0,0,1,1.13-.594A4.7,4.7,0,0,1,82.107-9.342ZM84.8.45a.67.67,0,0,0-.176-.482,1.209,1.209,0,0,0-.472-.293,3.045,3.045,0,0,0-.7-.153q-.4-.045-.841-.072T81.7-.6q-.468-.022-.9-.085a2.323,2.323,0,0,0-.7.54,1.087,1.087,0,0,0-.27.729.967.967,0,0,0,.139.5,1.179,1.179,0,0,0,.432.4,2.568,2.568,0,0,0,.747.27,5.212,5.212,0,0,0,1.094.1,3.7,3.7,0,0,0,1.917-.4A1.171,1.171,0,0,0,84.8.45ZM82.107-4.671a1.812,1.812,0,0,0,1.35-.459,1.637,1.637,0,0,0,.45-1.2,1.6,1.6,0,0,0-.45-1.2,1.857,1.857,0,0,0-1.35-.441,1.859,1.859,0,0,0-1.346.441,1.591,1.591,0,0,0-.454,1.2,1.85,1.85,0,0,0,.117.666,1.454,1.454,0,0,0,.342.527,1.531,1.531,0,0,0,.563.342A2.293,2.293,0,0,0,82.107-4.671ZM88.272,0V-13.32h1.935v5.229a4.873,4.873,0,0,1,1.242-.9,3.48,3.48,0,0,1,1.575-.338,3.265,3.265,0,0,1,1.327.252,2.654,2.654,0,0,1,.963.711,3.063,3.063,0,0,1,.59,1.1,4.8,4.8,0,0,1,.2,1.418V0H94.176V-5.841a2.187,2.187,0,0,0-.427-1.44,1.6,1.6,0,0,0-1.3-.513,2.5,2.5,0,0,0-1.2.3,4.121,4.121,0,0,0-1.04.81V0Zm12.915.144A2.322,2.322,0,0,1,99.428-.5a2.516,2.516,0,0,1-.617-1.813V-7.659H97.8a.407.407,0,0,1-.279-.1.393.393,0,0,1-.117-.31v-.783l1.485-.216.423-2.655a.512.512,0,0,1,.153-.248.422.422,0,0,1,.288-.094h.99v3.015h2.547v1.4h-2.547v5.211a1.07,1.07,0,0,0,.243.756.843.843,0,0,0,.648.261,1.142,1.142,0,0,0,.387-.059,1.75,1.75,0,0,0,.279-.126q.117-.068.2-.126a.3.3,0,0,1,.167-.059.3.3,0,0,1,.261.18l.576.945a3.14,3.14,0,0,1-1.062.608A3.831,3.831,0,0,1,101.187.144Z" transform="translate(894 5452)" fill="#333"/>
    <path id="Path_29801" data-name="Path 29801" d="M2.637-12.96a1.656,1.656,0,0,1,.23.014.659.659,0,0,1,.175.05.51.51,0,0,1,.153.108,1.689,1.689,0,0,1,.153.18l7.128,9.153q-.027-.279-.04-.549t-.014-.5V-12.96h1.845V0H11.2a.918.918,0,0,1-.414-.085.968.968,0,0,1-.324-.284L3.339-9.513q.027.261.04.518t.014.472V0H1.539V-12.96ZM18.684-9.324a4.87,4.87,0,0,1,1.84.333,3.946,3.946,0,0,1,1.4.945,4.2,4.2,0,0,1,.9,1.485A5.752,5.752,0,0,1,23.139-4.6a5.752,5.752,0,0,1-.315,1.962,4.241,4.241,0,0,1-.9,1.49,3.918,3.918,0,0,1-1.4.95,4.87,4.87,0,0,1-1.84.333A4.895,4.895,0,0,1,16.834-.2a3.962,3.962,0,0,1-1.408-.95,4.206,4.206,0,0,1-.9-1.49A5.752,5.752,0,0,1,14.211-4.6a5.752,5.752,0,0,1,.315-1.962,4.161,4.161,0,0,1,.9-1.485,3.991,3.991,0,0,1,1.408-.945A4.895,4.895,0,0,1,18.684-9.324Zm0,7.947a2.139,2.139,0,0,0,1.85-.833,3.992,3.992,0,0,0,.608-2.381,4.035,4.035,0,0,0-.608-2.389,2.13,2.13,0,0,0-1.85-.842,2.161,2.161,0,0,0-1.872.842A4.012,4.012,0,0,0,16.2-4.59a3.97,3.97,0,0,0,.612,2.381A2.171,2.171,0,0,0,18.684-1.377ZM24.993,0V-9.18h1.125a.611.611,0,0,1,.423.113.691.691,0,0,1,.162.392l.108,1.2a4.155,4.155,0,0,1,1.053-1.372,2.247,2.247,0,0,1,1.467-.5,2.222,2.222,0,0,1,.558.068,1.569,1.569,0,0,1,.468.2l-.135,1.458a.362.362,0,0,1-.113.212.325.325,0,0,1-.2.059,2.172,2.172,0,0,1-.387-.05,2.751,2.751,0,0,0-.531-.049,2.059,2.059,0,0,0-.72.117,1.667,1.667,0,0,0-.558.342,2.365,2.365,0,0,0-.432.549,5.3,5.3,0,0,0-.351.738V0Zm6.642,0V-9.18h1.17a.475.475,0,0,1,.5.369l.126.8a5.775,5.775,0,0,1,.522-.526,3.407,3.407,0,0,1,.58-.414,2.963,2.963,0,0,1,.666-.274,2.859,2.859,0,0,1,.77-.1,2.493,2.493,0,0,1,.81.126,2.06,2.06,0,0,1,.653.36,2.307,2.307,0,0,1,.49.567,3.413,3.413,0,0,1,.342.747,2.9,2.9,0,0,1,.522-.819,2.821,2.821,0,0,1,.7-.558,3.192,3.192,0,0,1,.824-.319,3.829,3.829,0,0,1,.887-.1,3.5,3.5,0,0,1,1.319.234,2.611,2.611,0,0,1,.981.68,2.955,2.955,0,0,1,.608,1.093,4.846,4.846,0,0,1,.207,1.476V0H42.381V-5.841A2.2,2.2,0,0,0,41.962-7.3a1.537,1.537,0,0,0-1.237-.49,1.9,1.9,0,0,0-.693.126,1.626,1.626,0,0,0-.567.369,1.709,1.709,0,0,0-.382.608,2.373,2.373,0,0,0-.139.85V0H37.008V-5.841a2.244,2.244,0,0,0-.4-1.48,1.478,1.478,0,0,0-1.188-.473,1.911,1.911,0,0,0-1,.275,3.235,3.235,0,0,0-.846.752V0ZM52.506,0a.842.842,0,0,1-.423-.085.656.656,0,0,1-.243-.347l-.189-.747a7.034,7.034,0,0,1-.693.567,4.57,4.57,0,0,1-.707.414,3.473,3.473,0,0,1-.783.256,4.617,4.617,0,0,1-.923.086,3.415,3.415,0,0,1-1.039-.153,2.282,2.282,0,0,1-.833-.463,2.193,2.193,0,0,1-.554-.769,2.658,2.658,0,0,1-.2-1.08A2.086,2.086,0,0,1,46.2-3.357a2.588,2.588,0,0,1,.936-.9,6.067,6.067,0,0,1,1.719-.661,12.488,12.488,0,0,1,2.632-.3v-.612a2.2,2.2,0,0,0-.423-1.476,1.558,1.558,0,0,0-1.242-.486,2.724,2.724,0,0,0-.936.14,4.226,4.226,0,0,0-.657.3q-.279.162-.495.3a.832.832,0,0,1-.459.14.551.551,0,0,1-.338-.1.856.856,0,0,1-.229-.257l-.351-.63a5.257,5.257,0,0,1,3.708-1.449,3.64,3.64,0,0,1,1.409.257,2.818,2.818,0,0,1,1.035.724,3.2,3.2,0,0,1,.639,1.111,4.379,4.379,0,0,1,.221,1.427V0ZM49.131-1.206a2.783,2.783,0,0,0,1.3-.283A4.156,4.156,0,0,0,51.489-2.3v-1.71a13.62,13.62,0,0,0-1.746.171,4.679,4.679,0,0,0-1.152.333,1.571,1.571,0,0,0-.635.481,1.031,1.031,0,0,0-.193.607,1.34,1.34,0,0,0,.1.554,1.009,1.009,0,0,0,.288.378,1.171,1.171,0,0,0,.432.216A2.066,2.066,0,0,0,49.131-1.206ZM57.6-13.32V0H55.665V-13.32Zm5.9.36h1.764a.767.767,0,0,1,.455.131.63.63,0,0,1,.247.356L68.4-4.167q.072.27.131.58t.121.652q.072-.342.148-.657t.167-.576l2.781-8.307A.758.758,0,0,1,72-12.807a.693.693,0,0,1,.45-.153h.612a.69.69,0,0,1,.45.14.907.907,0,0,1,.261.346l2.772,8.307q.09.261.162.562t.144.644q.063-.333.122-.639t.131-.567l2.421-8.307a.633.633,0,0,1,.247-.342.74.74,0,0,1,.454-.144h1.647L77.841,0h-1.9L72.9-9.306q-.054-.153-.1-.333t-.094-.387q-.045.207-.1.387t-.1.333L69.435,0h-1.9ZM86.04-9.324a4.36,4.36,0,0,1,1.566.275,3.433,3.433,0,0,1,1.242.805,3.7,3.7,0,0,1,.814,1.3,4.9,4.9,0,0,1,.292,1.75,1.235,1.235,0,0,1-.1.6.4.4,0,0,1-.36.153H83.6a4.611,4.611,0,0,0,.243,1.354,2.793,2.793,0,0,0,.554.949,2.153,2.153,0,0,0,.828.563,2.985,2.985,0,0,0,1.076.184,3.279,3.279,0,0,0,.981-.13A4.606,4.606,0,0,0,88-1.8q.306-.157.522-.288a.78.78,0,0,1,.4-.131.413.413,0,0,1,.36.18l.549.711a3.483,3.483,0,0,1-.774.684,4.51,4.51,0,0,1-.918.454,5.186,5.186,0,0,1-1,.252,6.771,6.771,0,0,1-1,.076A4.8,4.8,0,0,1,84.37-.185a3.933,3.933,0,0,1-1.413-.94,4.342,4.342,0,0,1-.936-1.539,6.111,6.111,0,0,1-.338-2.115,5.169,5.169,0,0,1,.3-1.782A4.251,4.251,0,0,1,82.849-8a4.057,4.057,0,0,1,1.368-.967A4.47,4.47,0,0,1,86.04-9.324Zm.036,1.4a2.238,2.238,0,0,0-1.656.6,2.925,2.925,0,0,0-.765,1.692h4.563a2.844,2.844,0,0,0-.139-.9,2.118,2.118,0,0,0-.41-.729A1.867,1.867,0,0,0,87-7.744,2.279,2.279,0,0,0,86.076-7.92Zm7.695-1.26V0H91.836V-9.18Zm.324-2.772a1.21,1.21,0,0,1-.1.495,1.3,1.3,0,0,1-.284.41,1.381,1.381,0,0,1-.418.279,1.263,1.263,0,0,1-.508.1,1.179,1.179,0,0,1-.491-.1,1.3,1.3,0,0,1-.4-.279,1.382,1.382,0,0,1-.275-.41,1.21,1.21,0,0,1-.1-.495,1.232,1.232,0,0,1,.1-.5,1.382,1.382,0,0,1,.275-.41,1.3,1.3,0,0,1,.4-.279,1.179,1.179,0,0,1,.491-.1,1.263,1.263,0,0,1,.508.1,1.381,1.381,0,0,1,.418.279,1.3,1.3,0,0,1,.284.41A1.232,1.232,0,0,1,94.095-11.952Zm5.391,2.61a4.534,4.534,0,0,1,1.111.13,4.078,4.078,0,0,1,.95.365h2.574v.72q0,.36-.432.441l-.918.153A2.888,2.888,0,0,1,103-6.372a2.775,2.775,0,0,1-.265,1.224,2.759,2.759,0,0,1-.734.936,3.31,3.31,0,0,1-1.116.594,4.591,4.591,0,0,1-1.4.207,4.931,4.931,0,0,1-.562-.031q-.274-.032-.535-.086A1.27,1.27,0,0,0,98-3.2a.586.586,0,0,0-.126.351.472.472,0,0,0,.261.441,2.057,2.057,0,0,0,.688.207,8.721,8.721,0,0,0,.976.081q.549.018,1.116.063a10.506,10.506,0,0,1,1.116.149,3.211,3.211,0,0,1,.977.342,1.916,1.916,0,0,1,.688.644,1.915,1.915,0,0,1,.261,1.053,2.475,2.475,0,0,1-.3,1.161A3.125,3.125,0,0,1,102.8,2.3,4.449,4.449,0,0,1,101.43,3a5.915,5.915,0,0,1-1.845.266,7.143,7.143,0,0,1-1.786-.2,4.2,4.2,0,0,1-1.269-.535,2.3,2.3,0,0,1-.756-.779,1.851,1.851,0,0,1-.247-.918,1.605,1.605,0,0,1,.41-1.107,2.73,2.73,0,0,1,1.111-.72,1.571,1.571,0,0,1-.607-.5,1.374,1.374,0,0,1-.229-.828,1.308,1.308,0,0,1,.072-.414,1.658,1.658,0,0,1,.22-.428,2.181,2.181,0,0,1,.369-.4,2.67,2.67,0,0,1,.518-.342,2.877,2.877,0,0,1-1.076-1.008,2.722,2.722,0,0,1-.392-1.467,2.8,2.8,0,0,1,.266-1.233,2.713,2.713,0,0,1,.743-.936,3.406,3.406,0,0,1,1.13-.594A4.7,4.7,0,0,1,99.486-9.342ZM102.177.45A.67.67,0,0,0,102-.032a1.209,1.209,0,0,0-.472-.293,3.045,3.045,0,0,0-.7-.153q-.4-.045-.841-.072T99.081-.6q-.468-.022-.9-.085a2.323,2.323,0,0,0-.7.54,1.087,1.087,0,0,0-.27.729.967.967,0,0,0,.139.5,1.179,1.179,0,0,0,.432.4,2.568,2.568,0,0,0,.747.27,5.212,5.212,0,0,0,1.094.1,3.7,3.7,0,0,0,1.917-.4A1.171,1.171,0,0,0,102.177.45ZM99.486-4.671a1.812,1.812,0,0,0,1.35-.459,1.637,1.637,0,0,0,.45-1.2,1.6,1.6,0,0,0-.45-1.2,1.857,1.857,0,0,0-1.35-.441,1.859,1.859,0,0,0-1.346.441,1.591,1.591,0,0,0-.454,1.2,1.85,1.85,0,0,0,.117.666,1.454,1.454,0,0,0,.342.527,1.531,1.531,0,0,0,.563.342A2.293,2.293,0,0,0,99.486-4.671ZM105.651,0V-13.32h1.935v5.229a4.873,4.873,0,0,1,1.242-.9,3.48,3.48,0,0,1,1.575-.338,3.265,3.265,0,0,1,1.327.252,2.654,2.654,0,0,1,.963.711,3.063,3.063,0,0,1,.59,1.1,4.8,4.8,0,0,1,.2,1.418V0h-1.926V-5.841a2.187,2.187,0,0,0-.427-1.44,1.6,1.6,0,0,0-1.3-.513,2.5,2.5,0,0,0-1.2.3,4.121,4.121,0,0,0-1.04.81V0Zm12.915.144A2.322,2.322,0,0,1,116.807-.5a2.516,2.516,0,0,1-.617-1.813V-7.659h-1.008a.407.407,0,0,1-.279-.1.393.393,0,0,1-.117-.31v-.783l1.485-.216.423-2.655a.512.512,0,0,1,.153-.248.422.422,0,0,1,.288-.094h.99v3.015h2.547v1.4h-2.547v5.211a1.07,1.07,0,0,0,.243.756.843.843,0,0,0,.648.261,1.142,1.142,0,0,0,.387-.059,1.75,1.75,0,0,0,.279-.126q.117-.068.2-.126a.3.3,0,0,1,.167-.059.3.3,0,0,1,.261.18l.576.945a3.14,3.14,0,0,1-1.062.608A3.831,3.831,0,0,1,118.566.144Z" transform="translate(894 5506)" fill="#333"/>
    <path id="Path_29802" data-name="Path 29802" d="M13.716-6.48a7.326,7.326,0,0,1-.468,2.655A6.135,6.135,0,0,1,11.93-1.732,6.022,6.022,0,0,1,9.887-.36,6.851,6.851,0,0,1,7.236.135,6.826,6.826,0,0,1,4.595-.36,6.07,6.07,0,0,1,2.547-1.732,6.1,6.1,0,0,1,1.224-3.825,7.326,7.326,0,0,1,.756-6.48a7.326,7.326,0,0,1,.468-2.655,6.149,6.149,0,0,1,1.323-2.1,6.038,6.038,0,0,1,2.048-1.377A6.826,6.826,0,0,1,7.236-13.1a6.851,6.851,0,0,1,2.651.495,5.99,5.99,0,0,1,2.043,1.377,6.184,6.184,0,0,1,1.318,2.1A7.326,7.326,0,0,1,13.716-6.48Zm-2.151,0a6.241,6.241,0,0,0-.3-2.007A4.247,4.247,0,0,0,10.4-10a3.761,3.761,0,0,0-1.364-.954,4.649,4.649,0,0,0-1.8-.333,4.624,4.624,0,0,0-1.791.333A3.8,3.8,0,0,0,4.077-10,4.263,4.263,0,0,0,3.2-8.487,6.157,6.157,0,0,0,2.9-6.48,6.187,6.187,0,0,0,3.2-4.464a4.217,4.217,0,0,0,.873,1.507,3.782,3.782,0,0,0,1.368.945,4.68,4.68,0,0,0,1.791.328,4.705,4.705,0,0,0,1.8-.328A3.74,3.74,0,0,0,10.4-2.957a4.2,4.2,0,0,0,.864-1.507A6.272,6.272,0,0,0,11.565-6.48Zm3.051-2.7h1.593a.6.6,0,0,1,.374.113.515.515,0,0,1,.194.266L18.81-3.456q.126.387.225.752t.171.743q.072-.369.171-.738t.234-.756L21.681-8.8a.549.549,0,0,1,.2-.27.568.568,0,0,1,.351-.108h1.512L20.052,0H18.306Zm14.022-.144a4.36,4.36,0,0,1,1.566.275,3.433,3.433,0,0,1,1.242.805,3.7,3.7,0,0,1,.814,1.3,4.9,4.9,0,0,1,.292,1.75,1.235,1.235,0,0,1-.1.6.4.4,0,0,1-.36.153H26.2a4.611,4.611,0,0,0,.243,1.354A2.793,2.793,0,0,0,27-2.133a2.153,2.153,0,0,0,.828.563,2.985,2.985,0,0,0,1.075.184,3.279,3.279,0,0,0,.981-.13A4.606,4.606,0,0,0,30.6-1.8q.306-.157.522-.288a.78.78,0,0,1,.4-.131.413.413,0,0,1,.36.18l.549.711a3.483,3.483,0,0,1-.774.684,4.51,4.51,0,0,1-.918.454,5.186,5.186,0,0,1-1,.252,6.771,6.771,0,0,1-1,.076,4.8,4.8,0,0,1-1.769-.319,3.933,3.933,0,0,1-1.413-.94,4.342,4.342,0,0,1-.936-1.539,6.111,6.111,0,0,1-.337-2.115,5.169,5.169,0,0,1,.3-1.782A4.251,4.251,0,0,1,25.447-8a4.057,4.057,0,0,1,1.368-.967A4.47,4.47,0,0,1,28.638-9.324Zm.036,1.4a2.238,2.238,0,0,0-1.656.6,2.925,2.925,0,0,0-.765,1.692h4.563a2.843,2.843,0,0,0-.14-.9,2.118,2.118,0,0,0-.41-.729,1.867,1.867,0,0,0-.67-.486A2.279,2.279,0,0,0,28.674-7.92ZM34.353,0V-9.18h1.125a.611.611,0,0,1,.423.113.691.691,0,0,1,.162.392l.108,1.2a4.155,4.155,0,0,1,1.053-1.372,2.247,2.247,0,0,1,1.467-.5,2.222,2.222,0,0,1,.558.068,1.569,1.569,0,0,1,.468.2l-.135,1.458a.362.362,0,0,1-.112.212.325.325,0,0,1-.2.059,2.172,2.172,0,0,1-.387-.05,2.751,2.751,0,0,0-.531-.049,2.059,2.059,0,0,0-.72.117,1.667,1.667,0,0,0-.558.342,2.365,2.365,0,0,0-.432.549,5.3,5.3,0,0,0-.351.738V0Zm5.688-9.18h1.53a.6.6,0,0,1,.374.113.515.515,0,0,1,.193.266l1.53,5.346q.09.369.157.715t.122.689q.09-.342.184-.689t.212-.715l1.719-5.373a.485.485,0,0,1,.184-.265.551.551,0,0,1,.337-.1h.846a.585.585,0,0,1,.351.1.478.478,0,0,1,.189.265l1.674,5.373q.1.369.2.72t.18.693a13.327,13.327,0,0,1,.306-1.413L51.885-8.8a.549.549,0,0,1,.2-.27.568.568,0,0,1,.351-.108h1.458L50.949,0H49.41q-.27,0-.378-.351L47.205-6.066q-.072-.243-.131-.482t-.1-.482q-.1.486-.243.972L44.874-.351A.416.416,0,0,1,44.451,0H42.984Zm18.954-.144a4.36,4.36,0,0,1,1.566.275,3.433,3.433,0,0,1,1.242.805,3.7,3.7,0,0,1,.814,1.3,4.9,4.9,0,0,1,.292,1.75,1.235,1.235,0,0,1-.1.6.4.4,0,0,1-.36.153h-5.9A4.611,4.611,0,0,0,56.8-3.082a2.793,2.793,0,0,0,.554.949,2.153,2.153,0,0,0,.828.563,2.985,2.985,0,0,0,1.076.184,3.279,3.279,0,0,0,.981-.13,4.606,4.606,0,0,0,.72-.288q.306-.157.522-.288a.78.78,0,0,1,.4-.131.413.413,0,0,1,.36.18l.549.711a3.483,3.483,0,0,1-.774.684,4.51,4.51,0,0,1-.918.454,5.186,5.186,0,0,1-1,.252,6.771,6.771,0,0,1-1,.076,4.8,4.8,0,0,1-1.769-.319,3.933,3.933,0,0,1-1.413-.94,4.342,4.342,0,0,1-.936-1.539,6.111,6.111,0,0,1-.338-2.115,5.169,5.169,0,0,1,.3-1.782A4.251,4.251,0,0,1,55.8-8a4.057,4.057,0,0,1,1.368-.967A4.47,4.47,0,0,1,58.995-9.324Zm.036,1.4a2.238,2.238,0,0,0-1.656.6,2.925,2.925,0,0,0-.765,1.692h4.563a2.843,2.843,0,0,0-.139-.9,2.117,2.117,0,0,0-.41-.729,1.867,1.867,0,0,0-.671-.486A2.279,2.279,0,0,0,59.031-7.92Zm7.695-1.26V0H64.791V-9.18Zm.324-2.772a1.21,1.21,0,0,1-.1.495,1.3,1.3,0,0,1-.284.41,1.381,1.381,0,0,1-.418.279,1.263,1.263,0,0,1-.508.1,1.179,1.179,0,0,1-.491-.1,1.3,1.3,0,0,1-.4-.279,1.382,1.382,0,0,1-.275-.41,1.21,1.21,0,0,1-.1-.495,1.232,1.232,0,0,1,.1-.5,1.382,1.382,0,0,1,.275-.41,1.3,1.3,0,0,1,.4-.279,1.179,1.179,0,0,1,.491-.1,1.263,1.263,0,0,1,.508.1,1.381,1.381,0,0,1,.418.279,1.3,1.3,0,0,1,.284.41A1.232,1.232,0,0,1,67.05-11.952Zm5.391,2.61a4.534,4.534,0,0,1,1.111.13,4.078,4.078,0,0,1,.95.365h2.574v.72q0,.36-.432.441l-.918.153a2.888,2.888,0,0,1,.234,1.161,2.775,2.775,0,0,1-.265,1.224,2.759,2.759,0,0,1-.734.936,3.31,3.31,0,0,1-1.116.594,4.591,4.591,0,0,1-1.4.207,4.931,4.931,0,0,1-.562-.031q-.274-.032-.535-.086a1.27,1.27,0,0,0-.387.324.586.586,0,0,0-.126.351.472.472,0,0,0,.261.441,2.057,2.057,0,0,0,.688.207,8.721,8.721,0,0,0,.976.081q.549.018,1.116.063a10.506,10.506,0,0,1,1.116.149,3.211,3.211,0,0,1,.977.342,1.916,1.916,0,0,1,.688.644A1.915,1.915,0,0,1,76.914.126a2.475,2.475,0,0,1-.3,1.161A3.125,3.125,0,0,1,75.757,2.3,4.449,4.449,0,0,1,74.385,3a5.915,5.915,0,0,1-1.845.266,7.143,7.143,0,0,1-1.786-.2,4.2,4.2,0,0,1-1.269-.535,2.3,2.3,0,0,1-.756-.779,1.851,1.851,0,0,1-.247-.918,1.605,1.605,0,0,1,.41-1.107A2.73,2.73,0,0,1,70-.99a1.571,1.571,0,0,1-.607-.5,1.374,1.374,0,0,1-.229-.828,1.308,1.308,0,0,1,.072-.414,1.658,1.658,0,0,1,.22-.428,2.181,2.181,0,0,1,.369-.4,2.67,2.67,0,0,1,.518-.342,2.877,2.877,0,0,1-1.076-1.008,2.722,2.722,0,0,1-.392-1.467,2.8,2.8,0,0,1,.266-1.233,2.713,2.713,0,0,1,.743-.936,3.406,3.406,0,0,1,1.13-.594A4.7,4.7,0,0,1,72.441-9.342ZM75.132.45a.67.67,0,0,0-.176-.482,1.209,1.209,0,0,0-.472-.293,3.045,3.045,0,0,0-.7-.153q-.4-.045-.841-.072T72.036-.6q-.468-.022-.9-.085a2.323,2.323,0,0,0-.7.54,1.087,1.087,0,0,0-.27.729.967.967,0,0,0,.139.5,1.179,1.179,0,0,0,.432.4,2.568,2.568,0,0,0,.747.27,5.212,5.212,0,0,0,1.094.1,3.7,3.7,0,0,0,1.917-.4A1.171,1.171,0,0,0,75.132.45ZM72.441-4.671a1.812,1.812,0,0,0,1.35-.459,1.637,1.637,0,0,0,.45-1.2,1.6,1.6,0,0,0-.45-1.2,1.857,1.857,0,0,0-1.35-.441,1.859,1.859,0,0,0-1.346.441,1.591,1.591,0,0,0-.454,1.2,1.85,1.85,0,0,0,.117.666,1.454,1.454,0,0,0,.342.527,1.531,1.531,0,0,0,.563.342A2.293,2.293,0,0,0,72.441-4.671ZM78.606,0V-13.32h1.935v5.229a4.873,4.873,0,0,1,1.242-.9,3.48,3.48,0,0,1,1.575-.338,3.265,3.265,0,0,1,1.327.252,2.654,2.654,0,0,1,.963.711,3.063,3.063,0,0,1,.59,1.1,4.8,4.8,0,0,1,.2,1.418V0H84.51V-5.841a2.187,2.187,0,0,0-.427-1.44,1.6,1.6,0,0,0-1.3-.513,2.5,2.5,0,0,0-1.2.3,4.121,4.121,0,0,0-1.04.81V0ZM91.521.144A2.322,2.322,0,0,1,89.762-.5a2.516,2.516,0,0,1-.617-1.813V-7.659H88.137a.407.407,0,0,1-.279-.1.393.393,0,0,1-.117-.31v-.783l1.485-.216.423-2.655a.512.512,0,0,1,.153-.248.422.422,0,0,1,.288-.094h.99v3.015h2.547v1.4H91.08v5.211a1.07,1.07,0,0,0,.243.756.843.843,0,0,0,.648.261,1.142,1.142,0,0,0,.387-.059,1.75,1.75,0,0,0,.279-.126q.117-.068.2-.126a.3.3,0,0,1,.167-.059.3.3,0,0,1,.261.18l.576.945a3.14,3.14,0,0,1-1.062.608A3.831,3.831,0,0,1,91.521.144Z" transform="translate(894 5566)" fill="#333"/>
    <path id="Path_29803" data-name="Path 29803" d="M13.716-6.48a7.326,7.326,0,0,1-.468,2.655A6.135,6.135,0,0,1,11.93-1.732,6.022,6.022,0,0,1,9.887-.36,6.851,6.851,0,0,1,7.236.135,6.826,6.826,0,0,1,4.595-.36,6.07,6.07,0,0,1,2.547-1.732,6.1,6.1,0,0,1,1.224-3.825,7.326,7.326,0,0,1,.756-6.48a7.326,7.326,0,0,1,.468-2.655,6.149,6.149,0,0,1,1.323-2.1,6.038,6.038,0,0,1,2.048-1.377A6.826,6.826,0,0,1,7.236-13.1a6.851,6.851,0,0,1,2.651.495,5.99,5.99,0,0,1,2.043,1.377,6.184,6.184,0,0,1,1.318,2.1A7.326,7.326,0,0,1,13.716-6.48Zm-2.151,0a6.241,6.241,0,0,0-.3-2.007A4.247,4.247,0,0,0,10.4-10a3.761,3.761,0,0,0-1.364-.954,4.649,4.649,0,0,0-1.8-.333,4.624,4.624,0,0,0-1.791.333A3.8,3.8,0,0,0,4.077-10,4.263,4.263,0,0,0,3.2-8.487,6.157,6.157,0,0,0,2.9-6.48,6.187,6.187,0,0,0,3.2-4.464a4.217,4.217,0,0,0,.873,1.507,3.782,3.782,0,0,0,1.368.945,4.68,4.68,0,0,0,1.791.328,4.705,4.705,0,0,0,1.8-.328A3.74,3.74,0,0,0,10.4-2.957a4.2,4.2,0,0,0,.864-1.507A6.272,6.272,0,0,0,11.565-6.48ZM15.507,0V-13.32h1.935v5.355a4.632,4.632,0,0,1,1.269-.99,3.391,3.391,0,0,1,1.6-.369,3.281,3.281,0,0,1,1.444.311,3.023,3.023,0,0,1,1.094.9A4.254,4.254,0,0,1,23.544-6.7a6.7,6.7,0,0,1,.243,1.876,7.036,7.036,0,0,1-.274,2.03,4.686,4.686,0,0,1-.788,1.566A3.534,3.534,0,0,1,21.483-.22a3.667,3.667,0,0,1-1.629.355,3.471,3.471,0,0,1-.8-.085,2.927,2.927,0,0,1-.666-.243,2.679,2.679,0,0,1-.562-.387,4.5,4.5,0,0,1-.491-.518l-.081.711a.49.49,0,0,1-.162.3.52.52,0,0,1-.324.09Zm4.158-7.794a2.339,2.339,0,0,0-1.238.319,3.674,3.674,0,0,0-.986.914V-2.3a2.326,2.326,0,0,0,.887.734,2.578,2.578,0,0,0,1.048.212,2.123,2.123,0,0,0,1.782-.828A4.19,4.19,0,0,0,21.8-4.752a3.848,3.848,0,0,0-.554-2.313A1.865,1.865,0,0,0,19.665-7.794ZM29.5-9.324a4.36,4.36,0,0,1,1.566.275,3.433,3.433,0,0,1,1.242.805,3.7,3.7,0,0,1,.815,1.3,4.9,4.9,0,0,1,.292,1.75,1.235,1.235,0,0,1-.1.6.4.4,0,0,1-.36.153h-5.9a4.611,4.611,0,0,0,.243,1.354,2.793,2.793,0,0,0,.553.949,2.153,2.153,0,0,0,.828.563,2.985,2.985,0,0,0,1.076.184,3.279,3.279,0,0,0,.981-.13,4.606,4.606,0,0,0,.72-.288q.306-.157.522-.288a.78.78,0,0,1,.4-.131.413.413,0,0,1,.36.18l.549.711a3.483,3.483,0,0,1-.774.684,4.51,4.51,0,0,1-.918.454,5.186,5.186,0,0,1-1,.252,6.771,6.771,0,0,1-1,.076,4.8,4.8,0,0,1-1.768-.319,3.933,3.933,0,0,1-1.413-.94,4.342,4.342,0,0,1-.936-1.539,6.111,6.111,0,0,1-.337-2.115,5.169,5.169,0,0,1,.3-1.782A4.251,4.251,0,0,1,26.312-8a4.057,4.057,0,0,1,1.368-.967A4.47,4.47,0,0,1,29.5-9.324Zm.036,1.4a2.238,2.238,0,0,0-1.656.6,2.925,2.925,0,0,0-.765,1.692H31.68a2.843,2.843,0,0,0-.139-.9,2.118,2.118,0,0,0-.41-.729,1.867,1.867,0,0,0-.671-.486A2.279,2.279,0,0,0,29.538-7.92Zm11.16.405a.481.481,0,0,1-.162.18.431.431,0,0,1-.225.054.724.724,0,0,1-.333-.095q-.18-.094-.423-.211a3.65,3.65,0,0,0-.571-.212,2.8,2.8,0,0,0-.77-.094,2.322,2.322,0,0,0-.653.085,1.468,1.468,0,0,0-.495.243,1.1,1.1,0,0,0-.311.369.985.985,0,0,0-.108.454.769.769,0,0,0,.2.54,1.714,1.714,0,0,0,.522.374,5.064,5.064,0,0,0,.738.283q.414.126.846.27a8.534,8.534,0,0,1,.846.333,3.171,3.171,0,0,1,.738.464,2.111,2.111,0,0,1,.522.666,2.085,2.085,0,0,1,.2.95,3.021,3.021,0,0,1-.234,1.2,2.688,2.688,0,0,1-.684.954,3.146,3.146,0,0,1-1.12.63,4.816,4.816,0,0,1-1.535.225A4.885,4.885,0,0,1,36.76.058a5.306,5.306,0,0,1-.846-.234,4.509,4.509,0,0,1-.747-.356,3.933,3.933,0,0,1-.617-.45L35-1.719a.623.623,0,0,1,.2-.211.556.556,0,0,1,.3-.077.673.673,0,0,1,.374.122q.185.121.432.265a3.421,3.421,0,0,0,.6.266,2.7,2.7,0,0,0,.873.122,2.4,2.4,0,0,0,.747-.1,1.5,1.5,0,0,0,.522-.284,1.139,1.139,0,0,0,.306-.409,1.225,1.225,0,0,0,.1-.49.84.84,0,0,0-.2-.576,1.679,1.679,0,0,0-.527-.387,4.857,4.857,0,0,0-.747-.288q-.418-.126-.85-.27a8.915,8.915,0,0,1-.851-.333,2.926,2.926,0,0,1-.747-.482,2.2,2.2,0,0,1-.527-.711,2.377,2.377,0,0,1-.2-1.022,2.537,2.537,0,0,1,.221-1.044,2.534,2.534,0,0,1,.648-.873,3.149,3.149,0,0,1,1.053-.6,4.338,4.338,0,0,1,1.444-.22,4.568,4.568,0,0,1,1.683.3,3.659,3.659,0,0,1,1.269.81Zm6.219-1.809a4.36,4.36,0,0,1,1.566.275,3.433,3.433,0,0,1,1.242.805,3.7,3.7,0,0,1,.815,1.3,4.9,4.9,0,0,1,.292,1.75,1.235,1.235,0,0,1-.1.6.4.4,0,0,1-.36.153h-5.9a4.611,4.611,0,0,0,.243,1.354,2.793,2.793,0,0,0,.554.949,2.153,2.153,0,0,0,.828.563,2.985,2.985,0,0,0,1.076.184,3.279,3.279,0,0,0,.981-.13,4.606,4.606,0,0,0,.72-.288q.306-.157.522-.288a.78.78,0,0,1,.4-.131.413.413,0,0,1,.36.18l.549.711a3.483,3.483,0,0,1-.774.684,4.51,4.51,0,0,1-.918.454,5.186,5.186,0,0,1-1,.252,6.771,6.771,0,0,1-1,.076,4.8,4.8,0,0,1-1.768-.319,3.933,3.933,0,0,1-1.413-.94A4.342,4.342,0,0,1,42.9-2.664a6.111,6.111,0,0,1-.337-2.115,5.169,5.169,0,0,1,.3-1.782A4.251,4.251,0,0,1,43.727-8a4.057,4.057,0,0,1,1.368-.967A4.47,4.47,0,0,1,46.917-9.324Zm.036,1.4a2.238,2.238,0,0,0-1.656.6,2.925,2.925,0,0,0-.765,1.692H49.1a2.843,2.843,0,0,0-.139-.9,2.117,2.117,0,0,0-.41-.729,1.867,1.867,0,0,0-.671-.486A2.279,2.279,0,0,0,46.953-7.92Z" transform="translate(894 5619)" fill="#333"/>
  </g>
</svg>
